<svg xmlns="http://www.w3.org/2000/svg" viewBox="0 0 378.89 98"><defs><style>.cls-1{fill:#fff;stroke:#fff;stroke-miterlimit:10;stroke-width:2px;}.cls-2{fill:#b3b3b3;}</style></defs><title>Asset 20</title><g id="Layer_2" data-name="Layer 2"><g id="Layer_1-2" data-name="Layer 1"><path class="cls-1" d="M33.3,41,27.8,44.8l5.5,4V97H21.9V59.12h3.5L25.2,59l-3.3-2.35-9.5-6.79V97H1V1H12.4V34.44l9.5,6.79V1H33.3Z"/><path class="cls-1" d="M56.1,43.75l-3-1.7v38.3H41.7l.1-11.9V37.65h3.4l-3.5-2v-.1l-2.9-1.7V21.45l2.9,1.6V2.55H53.1v27.1l3,1.7Z"/><path class="cls-1" d="M95.8,2.55v77.8H84.4V29.05h3.5l-13-7.5v58.8H63.5V2.55l20.9,12.1V2.55Z"/><path class="cls-1" d="M138.7,43.75v12.4l-3.3-1.9V69h.1v11.4H103.3V2.55h32.2v24.1H124.2V14h-9.5V69h9.4V49.45h3l-5.9-3.4V33.65Z"/><path class="cls-1" d="M178,2.55v24.3H166.6V14h-9.5v15.7L178,41.75v38.6H145.7V49.85h11.4V69h9.5V49.65h3.5l-.2-.1-3.3-1.9-20.9-12.1v-33H178Z"/><path class="cls-1" d="M207.3,2.55h11.4v51.8l-20.9-12.1v38.1H186.4v-43h3l-3-1.7L183.5,34V21.55l2.9,1.6V2.55h20.9Zm0,32.7V14h-9.5v15.8Z"/><path class="cls-1" d="M258.5,14v66.4H226.2V2.55h32.3ZM247.1,69V14h-9.5V69Z"/><path class="cls-1" d="M286.9,2.55h11.39V35l-5.5,3.1,5.5,3.2v39.1H286.9V49.65h3.5l-.2-.1-3.3-1.9-9.5-5.5v38.2H266V2.55h20.9Zm0,32.6V14h-9.5v15.7Z"/><path class="cls-1" d="M338.09,14h-10.5v66.4h-11.4V14h-10.4V2.55h32.3Z"/><path class="cls-1" d="M377.89,1V31h-11.4V15.07H357V34.44l20.9,14.93V97h-32.3V59.36H357V82.93h9.5V59.12H370l-.2-.12-3.3-2.35-20.9-14.93V1h32.3Z"/><polygon class="cls-2" points="27.8 44.8 33.3 48.75 33.3 97 21.9 97 21.9 59.12 25.4 59.12 25.2 59 21.9 56.65 12.4 49.86 12.4 97 1 97 1 42 31.83 42 27.8 44.8"/><polygon class="cls-2" points="41.8 68.45 41.7 80.35 53.1 80.35 53.1 42.05 56.1 43.75 56.1 42 41.8 42 41.8 68.45"/><rect class="cls-2" x="63.5" y="42" width="11.4" height="38.35"/><rect class="cls-2" x="84.4" y="42" width="11.4" height="38.35"/><polygon class="cls-2" points="138.7 56.15 138.7 43.75 135.67 42 121.2 42 121.2 46.05 127.1 49.45 124.1 49.45 124.1 68.95 114.7 68.95 114.7 42 103.3 42 103.3 80.35 135.5 80.35 135.5 68.95 135.4 68.95 135.4 54.25 138.7 56.15"/><polygon class="cls-2" points="166.6 47.65 169.9 49.55 170.1 49.65 166.6 49.65 166.6 68.95 157.1 68.95 157.1 49.85 145.7 49.85 145.7 80.35 178 80.35 178 42 156.84 42 166.6 47.65"/><polygon class="cls-2" points="186.4 80.35 197.8 80.35 197.8 42.25 218.7 54.35 218.7 42 186.4 42 186.4 80.35"/><polygon class="cls-2" points="247.1 42 247.1 68.95 237.6 68.95 237.6 42 226.2 42 226.2 80.35 258.5 80.35 258.5 42 247.1 42"/><polygon class="cls-2" points="266 80.35 277.4 80.35 277.4 42.15 286.9 47.65 290.2 49.55 290.4 49.65 286.9 49.65 286.9 80.35 298.3 80.35 298.3 42 266 42 266 80.35"/><rect class="cls-2" x="316.2" y="42" width="11.4" height="38.35"/><polygon class="cls-2" points="367.58 42 345.99 42 366.5 56.65 369.8 59 370 59.12 366.5 59.12 366.5 82.93 357 82.93 357 59.36 345.6 59.36 345.6 97 377.9 97 377.9 49.37 367.58 42"/></g></g></svg>