<svg xmlns="http://www.w3.org/2000/svg" viewBox="0 0 77.49 100"><defs><style>.cls-1{fill:#cfbe40;}.cls-1,.cls-10,.cls-11,.cls-2,.cls-3,.cls-4,.cls-5,.cls-6,.cls-7,.cls-8,.cls-9{fill-rule:evenodd;}.cls-2{fill:#c04e24;}.cls-4{fill:#ffed83;}.cls-5{fill:#b7991c;}.cls-6{fill:#547811;}.cls-7{fill:#fbfcfa;}.cls-8{fill:#fff100;}.cls-9{fill:#bbbcbf;}.cls-10{fill:#ed9707;}.cls-11{fill:#edd437;}.cls-12,.cls-14{fill:#fff;}.cls-12{stroke:#fff;stroke-miterlimit:10;stroke-width:0.25px;}.cls-13{fill:#b3b3b3;}</style></defs><title>Asset 25@100px</title><g id="Layer_2" data-name="Layer 2"><g id="Layer_1-2" data-name="Layer 1"><path class="cls-1" d="M61,81.8c-4.65,8.3-13.23,14-21.65,17.92l-.6.28-.6-.28C29.72,95.78,20.9,90.09,16.2,81.79l-.88.11-.64,2.23L12,84.52c-1.62.24-3.24.54-4.86.83L0,86.66,7.89,63.28l.9-.1,4.42-.47c.26-1.67.62-3.29.95-5a12.4,12.4,0,0,0,.31-2.58,3.87,3.87,0,0,0-.58.08c-1.51.32-3,.72-4.49,1.12L2.89,58.11,9.43,29.88l.89-.19c9.79-2,19.71-3.77,29.73-3.63,9.13.13,18.18,1.79,27.1,3.61l.89.19.2.89q2.9,12.53,5.82,25l.54,2.31-6.51-1.74c-1.49-.4-3-.79-4.5-1.1a2.12,2.12,0,0,0-.34-.06,11.55,11.55,0,0,0,.2,2.46c.25,1.6.53,3.18.75,4.78,1.52.23,3,.47,4.56.73l.84.14,3.27,9.74h0l4.61,13.59-7.11-1.3c-1.62-.3-3.24-.59-4.86-.82l-2.72-.39-.64-2.22L61,81.8"/><path class="cls-2" d="M61,81.8c-4.65,8.3-13.23,14-21.65,17.92l-.6.28-.6-.28C29.72,95.78,20.9,90.09,16.2,81.79l-.88.11-.64,2.23L12,84.52c-1.62.24-3.24.54-4.86.83L0,86.66l2.12-1.83,4.73-9.46,23.48-6.25,33,5.46L75.37,84.83l2.12,1.83-7.11-1.3c-1.62-.3-3.24-.59-4.86-.82l-2.72-.39-.64-2.22L61,81.8"/><path class="cls-3" d="M38.74,98.43c12-5.6,18.28-12,21.45-18.14l3.07.34.65,2.24,1.81.26c1.64.24,3.28.53,4.91.83l4.74.87L71.69,74h0l-3.15-9.4c-2-.33-3.81-.63-5.61-.89-.7-6.42-2.53-10.54,1-9.81,1.54.32,3.06.71,4.57,1.12l4.23,1.13C70,44.57,69.13,40.92,66.86,31.07c-22.8-4.67-32.33-4.92-56.25,0L4.8,56.13,9,55c1.51-.41,3-.81,4.57-1.14,4-.85,1.74,3.44.85,10.15l-5.51.58L2.12,84.83,6.85,84c1.63-.3,3.27-.6,4.91-.84l1.81-.26.64-2.25L17,80.27c3.18,6.09,9.57,12.46,21.76,18.16"/><path class="cls-2" d="M58.38,63.09q-.16-1.25-.39-2.52c-.54-3.24-1.5-7.23,1.3-9.77a6,6,0,0,1,5.5-1.26c.64.13,1.27.27,1.9.43L63.18,34.85A128.05,128.05,0,0,0,40,31.92c-8.63-.12-17.23,1.26-25.68,2.94L10.79,50c.62-.16,1.26-.3,1.89-.44a6.25,6.25,0,0,1,5.94,1.42c2.68,2.66,1.56,6.6.9,9.81-.19.94-.37,1.87-.52,2.8,16.79-1.64,26.86-1.94,39.38-.46"/><path class="cls-4" d="M17.07,34.32l-2.78.54L10.79,50c.62-.16,1.26-.3,1.89-.44l.57-.1Z"/><path class="cls-1" d="M25.64,31.73a25.52,25.52,0,0,1,3-2.77,22.89,22.89,0,0,1,8.7-4.36l.59-.14.54.28a16,16,0,0,0,5.74,1.75h.4l.35.19a20.36,20.36,0,0,1,3.48,2.56,13.52,13.52,0,0,1,4.42,2.36,6,6,0,0,1,2.33,4.23,5.41,5.41,0,0,1-.7,3l0,.08c.22.27.42.56.6.82a14.68,14.68,0,0,1,1.12,1.87,4.17,4.17,0,0,1,2.35,0,4,4,0,0,1,3-1.78,7.06,7.06,0,0,1,.29-.78,3.45,3.45,0,0,1,1.7-1.82,20.3,20.3,0,0,0,1.67-4.49l.56-2.54,2,.46.64,1.92a22.51,22.51,0,0,1,.8,8.75C67.82,53.16,55.92,55,55.92,55L55,51.14S24.68,51,23.75,48a4.15,4.15,0,0,0-3.85-2.92,3.75,3.75,0,0,1-2.77-1.73c-1.17-2,.08-4.8.6-6.86l.08-.31L18,36a7.8,7.8,0,0,1,1.9-1.68,21.59,21.59,0,0,1,5.74-2.55"/><path class="cls-3" d="M20.3,43.49c-3.29-.44-1.7-3.67-1-6.56,0,0,1.52-2.11,7.23-3.74,0,0,4.59-5.41,11.19-7a18.91,18.91,0,0,0,6.45,1.93,19.36,19.36,0,0,1,3.43,2.59h0s5.7,1.57,5.93,5.2a3.47,3.47,0,0,1-.87,2.56A9.52,9.52,0,0,1,53,39.75a12,12,0,0,1,2.31,4.09h0s2.52-1.53,3.41,0c.25-.06.51-.14.78-.23,0,0,.83-2.68,3.06-1.92l.4-.41s.38-2.68,1.71-2.48a23.88,23.88,0,0,0,2.18-5.61s5.31,16-11,21.84a15.83,15.83,0,0,1-2.38,9.22L42.2,72.83S40.28,75.94,32.72,75s-10.89-2.22-11.41-2.81-2.95-6.51-2.95-6.51c.13-6.53-.59-13.09,5.39-17.63h0c.67-3.19-3.45-4.54-3.45-4.54Z"/><path class="cls-5" d="M29.12,36.53s1,2,4.37,1.15c0,0,.74-1.43,2-1.41a2.65,2.65,0,0,0-2.81.5,3.61,3.61,0,0,1-3.52-.24m-4.19,3.53a2.64,2.64,0,0,1,2.65-2.41,2.18,2.18,0,0,0-.57.61,2.12,2.12,0,0,0,.36.91s-.12.33-.85.41A2.18,2.18,0,0,0,24.93,40.06Zm-4.43-.48c-1.1,3.5,1.15,1.32,3.86,2.78,3.23,1.75,3.43,1,5.09-.7s3.95-3.29,6.79-3.21c0,0-2.32.28-4.62,3.23a9.34,9.34,0,0,1,6.43-1.06s.59-4.74,6.89-2.07c0,0-2.67-.33-4,.81,0,0,5.32,4.49,0,11.42a10.36,10.36,0,0,0,4.41-5.71s1,3.7-4.45,10.67c0,0,3.45-1.93,4.82-4.71,0,0,1,3.64-3.52,8.38A18.06,18.06,0,0,0,50.7,48.28a11.61,11.61,0,0,0-.19-5.41A6.34,6.34,0,0,1,51.72,46a2.48,2.48,0,0,0,2-1.26c.15-1.67-2.26-3.77-2.26-3.77h0s-.63-4-2.76-5.64a4.69,4.69,0,0,1,2.64,2.19,2.84,2.84,0,0,0,.45-1.9c-1.48-2.81-5.09-3.34-5.09-3.34l-.54-.5a6.31,6.31,0,0,1-1.16,4,6.58,6.58,0,0,0-1.27-5.81,15.68,15.68,0,0,1-3.21-.66,5,5,0,0,1-.58,3.12c.55-2.56-2.33-4.25-2.33-4.25a20,20,0,0,0-6.77,3.56c-.44.34-.9.73-1.36,1.14a1.66,1.66,0,0,0,2.29.23c1.42-.91,4-3.2,6.27-.2a4.24,4.24,0,0,0-2.22-.39,1.54,1.54,0,0,1-1,1.95,2.59,2.59,0,0,0,1.86-.22,4.64,4.64,0,0,1-5.61.5s0,.5.94,1.11a2.14,2.14,0,0,1-1.87-1.74,1.93,1.93,0,0,1-1.14-.78c-.21.2-.41.41-.61.61l1.49,1.57-2.24-.7-.52.15c-.56.16-1.14.34-1.71.54a6.08,6.08,0,0,0-1.26,4.43,5.83,5.83,0,0,1-.81-3.57c-.43.22-.84.44-1.24.69a7.87,7.87,0,0,0-1.08.8,4.47,4.47,0,0,0,.57,2.32A3.39,3.39,0,0,1,20.5,39.58Z"/><path class="cls-1" d="M30.08,34.05a1.93,1.93,0,0,1-1.14-.78c-.21.2-.41.41-.61.61a2.94,2.94,0,0,0,1.75.17"/><path class="cls-1" d="M51.3,37.48a2.84,2.84,0,0,0,.45-1.9c-1.48-2.81-5.09-3.34-5.09-3.34s5,1.88,4.64,5.24"/><path class="cls-1" d="M44.2,30.62a5.5,5.5,0,0,0-.51-.72,15.68,15.68,0,0,1-3.21-.66S42.21,31,44.2,30.62"/><path class="cls-6" d="M38,32.84a4.24,4.24,0,0,0-2.22-.39,1.54,1.54,0,0,1-1,1.95,2.59,2.59,0,0,0,1.86-.22,4.64,4.64,0,0,1-5.61.5c1.59,1.76,7,1.52,7.58-.8a2.76,2.76,0,0,1-1.35.88s1.12-.85.76-1.92"/><path class="cls-6" d="M24.93,40.06a2.41,2.41,0,0,1,1.39,0c1,.23,1.86-.27,1.85-.84,0,0-.11.27-.67.48a1.33,1.33,0,0,0,.58-.84,1.93,1.93,0,0,1-.5-1.26,2.18,2.18,0,0,0-.57.61,2.12,2.12,0,0,0,.36.91s-.12.33-.85.41a2.18,2.18,0,0,0-1.59.48"/><path class="cls-1" d="M23.15,41.91ZM20.5,39.58c-.83,2.65.26,2,2,2.23C20.14,41.29,20.5,39.58,20.5,39.58Z"/><path class="cls-1" d="M23.28,36.3c-.43.22-.84.44-1.24.69a7.87,7.87,0,0,0-1.08.8,4.47,4.47,0,0,0,.57,2.32s-.81-1.85,1.75-3.81"/><path class="cls-1" d="M27.7,34.79l-.12,0-.52.15c-.56.16-1.14.34-1.71.54a6.08,6.08,0,0,0-1.26,4.43S24.87,36.19,27.7,34.79Z"/><path class="cls-1" d="M37.57,28.11a20,20,0,0,0-6.77,3.56c-.44.34-.9.73-1.36,1.14a1.63,1.63,0,0,0,1.09.57s1.86-2.83,7-5.27"/><path class="cls-6" d="M41.34,39.8l0,0Zm3.6-1.25s-2.67-.33-4,.81H41l0,0h0l0,0v0l0,0,0,0,0,0,0,0,0,0,0,0,0,0,0,0,0,0,0,0,0,0,0,0,0,0,0,0,0,0,0,0,0,.05,0,0,0,0,0,0,.05.06,0,0a.35.35,0,0,1,0,.08l0,0c1.24,1.7,2.89,5.41-.94,10.38a10.36,10.36,0,0,0,4.41-5.71s1,3.7-4.45,10.67c0,0,3.45-1.93,4.82-4.71,0,0,1,3.64-3.52,8.38A18.52,18.52,0,0,0,48,54.18.35.35,0,0,0,48,54.1h0l.12-.18.05-.06.12-.18,0-.08.11-.16.08-.12.08-.13.08-.13.08-.13.09-.16.06-.1a1.62,1.62,0,0,0,.1-.18l.06-.09.1-.2,0-.09a2.12,2.12,0,0,1,.11-.21l0-.07.12-.23,0-.06a2.56,2.56,0,0,1,.11-.24l0,0L49.8,51l0,0a2.33,2.33,0,0,0,.11-.28l0,0,.11-.29v0c0-.1.08-.2.11-.3v0c0-.1.07-.21.11-.32h0c0-.1.07-.21.11-.32v0c0-.11.07-.22.1-.32v0a2.14,2.14,0,0,0,.09-.34h0l.09-.35a11.61,11.61,0,0,0-.19-5.41A6.34,6.34,0,0,1,51.72,46a2.48,2.48,0,0,0,2-1.26c.15-1.67-2.26-3.77-2.26-3.77h0s-.63-4-2.76-5.64a18.16,18.16,0,0,1-.74,15.47A13.7,13.7,0,0,0,47,41.24a12.91,12.91,0,0,1-.37,4.67,16.08,16.08,0,0,0-1.28-6.39,16.59,16.59,0,0,1,2.85.2c-5-7.13-13-2.5-13-2.5a7.61,7.61,0,0,1,2.91.43,12.26,12.26,0,0,0-10,3.5,4.16,4.16,0,0,1-4.15,1l.37.18c3.23,1.75,3.43,1,5.09-.7s3.95-3.29,6.79-3.21c0,0-2.32.28-4.62,3.23a9.34,9.34,0,0,1,6.43-1.06S38.64,35.88,44.94,38.55Z"/><path class="cls-5" d="M36.08,43.27a7.12,7.12,0,0,1-.22,3.19s6.23-6,5.53.39c0,0-.26-1.47-.91-1.78,0,0,1.26,3.67-2.81,7.56A8.31,8.31,0,0,0,38.52,49a5.35,5.35,0,0,0-1.43.6L35.8,48l.42,2.18a5.3,5.3,0,0,0-1.11,1.36l-1.23-.77.81,1.66a7.28,7.28,0,0,0-.4,2.29s-2.24-.8-3.57.31c0,0-2.37-.62-3-.81l-.34-.85s2.55,2.07,8.74-10.12"/><path class="cls-1" d="M27.68,54.24l-.34-.85s2.55,2.07,8.74-10.12a85.76,85.76,0,0,1-4.32,7.87c-2,3.1-4.08,3.1-4.08,3.1"/><path class="cls-6" d="M40.43,43.94c.73.14,1.18.93,1,2.91,0,0-.26-1.47-.91-1.78,0,0,1.26,3.67-2.81,7.56A8.31,8.31,0,0,0,38.52,49a5.35,5.35,0,0,0-1.43.6L35.8,48l.42,2.18a5.3,5.3,0,0,0-1.11,1.36l-1.23-.77.81,1.66a7.28,7.28,0,0,0-.4,2.29s-2.24-.8-3.57.31L30.44,55s5.78-10.31,10-11"/><path class="cls-6" d="M51.2,63.09a19.86,19.86,0,0,0,1.33-4.92,10.54,10.54,0,0,1-2.24,3.91c2.16-3.78-.31-8-.31-8s1-2,1.48-3.33a11.47,11.47,0,0,1,1.79,5.09A8.31,8.31,0,0,0,51.83,50a3.22,3.22,0,0,0,.28-1.21c3.18,3.75,2.39,10.68-.91,14.28"/><path class="cls-5" d="M28.58,47.35s-4.74,2.59-6.37,4.85a16.14,16.14,0,0,0-1.56,10.56l7.37-1s1-4.08-1.26-5.67c0,0,3.6.48,3.26,3.7,0,0,1.73-4.56-3.48-5.11A4.36,4.36,0,0,1,27.87,50a3.56,3.56,0,0,0-2.37,1.83c-.08-1.52,2.06-3.38,3.08-4.46"/><path class="cls-1" d="M28.58,47.35s-4.74,2.59-6.37,4.85a16.14,16.14,0,0,0-1.56,10.56s-.42-6.45,2.05-9.86a13.19,13.19,0,0,1,3.58-3,25.92,25.92,0,0,1,2.3-2.52"/><path class="cls-6" d="M30,59.83s1.73-4.56-3.48-5.11c0,0,4.09,1.35,3.48,5.11"/><path class="cls-6" d="M25.57,62.12,28,61.8s1-4.08-1.26-5.67c0,0,.7,3.71-1.19,6"/><path class="cls-2" d="M36.44,41.25A10,10,0,0,1,36.79,45a5.43,5.43,0,0,0,.54-2.22,2.87,2.87,0,0,1,.11,1.27s.71-.79.28-2.75a2.35,2.35,0,0,0-1.28-.07"/><path class="cls-2" d="M38.23,41.19a7,7,0,0,1,.25,2.66,3.77,3.77,0,0,0,.38-1.56,2,2,0,0,1,.08.89s.5-.55.2-1.93a1.8,1.8,0,0,0-.91-.06"/><path class="cls-2" d="M39.67,41.23a4.42,4.42,0,0,1,0,1.68A2.42,2.42,0,0,0,40,42a1.12,1.12,0,0,1,0,.56s.36-.31.27-1.19a1,1,0,0,0-.56-.1"/><path class="cls-7" d="M26.81,44.18a2.27,2.27,0,0,0,1.51.75,3.65,3.65,0,0,1,0-1,1.75,1.75,0,0,0-1.5.24"/><path class="cls-7" d="M29.7,51.44a2.3,2.3,0,0,1,.35-1.65,3.28,3.28,0,0,0,.77.62c-.05.07-.37.92-1.12,1"/><path class="cls-7" d="M27.53,52.69A2.31,2.31,0,0,1,27.88,51a3.28,3.28,0,0,0,.77.62c0,.07-.37.92-1.12,1"/><path class="cls-7" d="M29,43.58a1.23,1.23,0,0,0,.94.08,2,2,0,0,1-.21-.52s-.55.06-.73.44"/><path class="cls-7" d="M30.38,42.81a1.34,1.34,0,0,0,1,.08,2.11,2.11,0,0,1-.22-.54,1,1,0,0,0-.78.46"/><path class="cls-7" d="M31.92,42.09a1.06,1.06,0,0,0,.67.36,1.36,1.36,0,0,1,0-.45.77.77,0,0,0-.68.09"/><path class="cls-7" d="M33.07,41.65a1.21,1.21,0,0,0,.75.4,1.68,1.68,0,0,1,0-.5.89.89,0,0,0-.76.1"/><path class="cls-7" d="M22.63,42.52a2.46,2.46,0,0,0,1.19,1.42,3.66,3.66,0,0,1,.42-1,1.9,1.9,0,0,0-1.61-.42"/><path class="cls-7" d="M31.33,49.78a1.17,1.17,0,0,1,.18-.85,2,2,0,0,0,.39.32s-.19.47-.57.53"/><path class="cls-7" d="M32.22,48.51a1.13,1.13,0,0,1,.18-.84,2.31,2.31,0,0,0,.39.31s-.19.47-.57.53"/><path class="cls-7" d="M32.8,47.35A1.2,1.2,0,0,1,33,46.5a1.76,1.76,0,0,0,.4.32s-.19.46-.58.53"/><path class="cls-5" d="M66.29,38.51s0,.15,0,.42c0,1.3-.27,5.32-4.77,9a9.64,9.64,0,0,0,3.08-2.37S63.49,50,55.39,52.65c-.46-2-1.22-4.14-2.43-5a6.23,6.23,0,0,1,3.26,3.8s.18-3.67-2.81-5a14.44,14.44,0,0,0,1.46-.05s1.6-1.5,2.53-1.44a1.05,1.05,0,0,1,.76.45,7.39,7.39,0,0,1-1.31.69,7.38,7.38,0,0,0,1.49-.36,16.11,16.11,0,0,0,1.87-.68s1-2.07,2.19-1.91l.26,0c-.39.46-.8.9-.8.9a7.44,7.44,0,0,0,2.4-1.83s.11-1.82,1-1.86c-.17.63-.37,1.18-.37,1.18a7.39,7.39,0,0,0,1-2,8.25,8.25,0,0,0,.35-1.13"/><path class="cls-1" d="M66.29,38.51h0a.65.65,0,0,1,0,.16,5.36,5.36,0,0,1-1.39,2.94,7.39,7.39,0,0,0,1-2,8.25,8.25,0,0,0,.35-1.13"/><path class="cls-1" d="M64.26,42.29s.11-1.82,1-1.86c-.05.17-.1.33-.14.48a2.27,2.27,0,0,0-.89,1.38"/><path class="cls-1" d="M60.21,45.1s1-2.07,2.19-1.91l.26,0-.35.4c-1.05.07-2.1,1.48-2.1,1.48"/><path class="cls-6" d="M66.32,38.83v.1c0,1.3-.27,5.32-4.77,9a9.64,9.64,0,0,0,3.08-2.37S63.49,50,55.39,52.65c-.46-2-1.22-4.14-2.43-5a6.23,6.23,0,0,1,3.26,3.8s.18-3.67-2.81-5a14.44,14.44,0,0,0,1.46-.05s1.6-1.5,2.53-1.44a1.05,1.05,0,0,1,.76.45,7.39,7.39,0,0,1-1.31.69l.26,0-.26,0c9-1,9.5-6,9.47-7.31"/><path class="cls-8" d="M31.85,34.18a10,10,0,0,1,1.7-1.27s.37.51.32.77c-.13.67-1.71.51-2,.5"/><path class="cls-6" d="M43.36,34.11a.45.45,0,1,1,.6.2l-.06,0a.86.86,0,0,1,.41.39.85.85,0,1,1-1.52.76.8.8,0,0,1,0-.64.68.68,0,0,1-.24.2.69.69,0,0,1-.92-.31.69.69,0,0,1,.31-.92l.12,0a.36.36,0,0,1-.21-.19.36.36,0,0,1,.16-.49.37.37,0,0,1,.49.17.36.36,0,0,1-.16.49.68.68,0,0,1,.52.37.69.69,0,0,1,0,.49.74.74,0,0,1,.31-.27.85.85,0,0,1,.31-.09.33.33,0,0,1-.12-.14"/><path class="cls-6" d="M48.81,36.86a.2.2,0,0,0,.09.25.18.18,0,1,0,.16-.33h0a.37.37,0,0,0,.17-.16.35.35,0,0,0-.16-.48.36.36,0,0,0-.48.16.39.39,0,0,0,0,.26.27.27,0,0,0-.1-.08.28.28,0,0,0-.38.13.29.29,0,0,0,.13.39l0,0a.16.16,0,0,0-.09.07.15.15,0,0,0,.07.21.14.14,0,0,0,.2-.07.15.15,0,0,0-.07-.21.27.27,0,0,0,.22-.15.26.26,0,0,0,0-.21.33.33,0,0,0,.13.11.22.22,0,0,0,.13,0l0,.06"/><path class="cls-6" d="M48.05,41a.18.18,0,0,0,.08.25.19.19,0,0,0,.17-.33h0a.33.33,0,0,0,.17-.16.36.36,0,1,0-.64-.32.39.39,0,0,0,0,.26.24.24,0,0,0-.09-.08.29.29,0,0,0-.39.13.3.3,0,0,0,.13.39l0,0a.16.16,0,0,0-.09.07.15.15,0,0,0,.07.21.15.15,0,0,0,.13-.27.29.29,0,0,0,.22-.16.26.26,0,0,0,0-.21.49.49,0,0,0,.13.12l.13,0a.21.21,0,0,0,0,.06"/><path class="cls-6" d="M48.79,44.67a.2.2,0,0,1,.09-.25.19.19,0,0,1,.25.09.19.19,0,0,1-.08.25h0a.33.33,0,0,1,.17.16.36.36,0,1,1-.64.32.36.36,0,0,1,0-.27.28.28,0,0,1-.1.09.3.3,0,0,1-.39-.13.29.29,0,0,1,.13-.39l0,0a.17.17,0,0,1-.09-.08.16.16,0,0,1,.28-.14.15.15,0,0,1-.07.21.29.29,0,0,1,.24.36.47.47,0,0,1,.13-.11.31.31,0,0,1,.13,0l-.05-.07"/><path class="cls-6" d="M22.19,57.17a.19.19,0,1,1,.34-.17.19.19,0,0,1-.09.25h0a.37.37,0,0,1,.17.16.36.36,0,0,1-.16.49.37.37,0,0,1-.48-.16.37.37,0,0,1,0-.27.39.39,0,0,1-.1.08.29.29,0,0,1-.26-.52l.05,0a.14.14,0,0,1-.09-.08.15.15,0,1,1,.21.07.3.3,0,0,1,.22.16.31.31,0,0,1,0,.21.37.37,0,0,1,.13-.12.31.31,0,0,1,.13,0l0-.06"/><path class="cls-1" d="M24.14,51.89a.19.19,0,1,1,.33-.17.19.19,0,0,1-.08.25h0a.36.36,0,0,1,0,.65.38.38,0,0,1-.49-.16.42.42,0,0,1,0-.27.34.34,0,0,1-.09.08.29.29,0,0,1-.39-.13.29.29,0,0,1,.13-.39l.05,0a.14.14,0,0,1-.09-.08.15.15,0,1,1,.2.07.29.29,0,0,1,.22.16.26.26,0,0,1,0,.21.41.41,0,0,1,.14-.12.28.28,0,0,1,.13,0l-.05-.06"/><path class="cls-6" d="M26.08,59.31a.19.19,0,0,1,.34-.17.18.18,0,0,1-.08.25h0a.35.35,0,0,1,.17.17.36.36,0,0,1-.16.48.36.36,0,0,1-.48-.16.37.37,0,0,1,0-.27.39.39,0,0,1-.1.08.29.29,0,1,1-.26-.52l.05,0a.2.2,0,0,1-.09-.07.17.17,0,0,1,.07-.21.15.15,0,0,1,.21.07.14.14,0,0,1-.07.2.3.3,0,0,1,.22.16.31.31,0,0,1,0,.21.28.28,0,0,1,.13-.11.22.22,0,0,1,.13,0l-.05-.06"/><path class="cls-6" d="M25.56,55.05a.19.19,0,0,1,.08-.25.18.18,0,0,1,.25.08.18.18,0,0,1-.08.25h0a.4.4,0,0,1,.17.17.36.36,0,0,1-.16.48.35.35,0,0,1-.48-.16.37.37,0,0,1,0-.27.24.24,0,0,1-.09.08.28.28,0,0,1-.39-.13.28.28,0,0,1,.13-.38l0,0a.18.18,0,0,1-.09-.08.15.15,0,0,1,.07-.21.15.15,0,0,1,.2.07.16.16,0,0,1-.06.21.31.31,0,0,1,.22.15.38.38,0,0,1,0,.21.28.28,0,0,1,.13-.11l.13,0a.1.1,0,0,1-.05-.06"/><path class="cls-6" d="M28.26,56a.2.2,0,0,0,.09.25.19.19,0,0,0,.24-.08.19.19,0,0,0-.08-.25h0a.38.38,0,0,0,.16-.15.35.35,0,0,0-.15-.47.34.34,0,0,0-.47.16.33.33,0,0,0,0,.26.2.2,0,0,0-.1-.08.27.27,0,0,0-.37.12.29.29,0,0,0,.12.38h.05a.2.2,0,0,0-.08.08.15.15,0,0,0,.06.2.14.14,0,0,0,.2-.07.15.15,0,0,0-.06-.2A.25.25,0,0,0,28,56a.27.27,0,0,0,0-.2.28.28,0,0,0,.13.11l.12,0s0,0,0,0"/><path class="cls-3" d="M39.32,60.23a3.08,3.08,0,0,0,1.13-.07,13.37,13.37,0,0,1,1.42-.53c.44-.08.91-.22,1.35-.34,1.33-.36,2.45-1.09,3.68-.08l.4.32c2.05.74,1.93,2.37,1.8,4.2l-.52-.32c.45,1,.34.48.15,1.58l-4.17,0a18.45,18.45,0,0,0-2.09-.3c-.51,0-1.11-.12-1.62-.11-.91,0-1.54,0-2.45,0-1.23,0-2.51,0-3.73.1l-.39,0c-1.37.08-3.81,1-4.7-.27A2,2,0,0,1,29.25,63,12,12,0,0,1,31,59a8.47,8.47,0,0,1,3-3.18l.63-.27a9,9,0,0,1,1.25-1.93l0-.06.53-.66.77.35a9.07,9.07,0,0,1,2.4,1.6A4,4,0,0,1,40.88,57a3.36,3.36,0,0,1-1.56,3.26"/><path class="cls-5" d="M33,61.21a13,13,0,0,1,5.33-.08c2.25.63,3.07-.29,3.78-.42a29.54,29.54,0,0,0,3-.85.92.92,0,0,1,1.11.2s-1.23.11-.08,1.82a.88.88,0,0,1-.71-.52s-.08.12.06.39c0,0-2.6.15-4.15.44,0,0,2.47,0,3.5,0,0,0,.6-.25.92.18,0,0-1.5.31,0,2a2,2,0,0,1-1.6-1,1.42,1.42,0,0,0,.66,1.13s-1.31-.27-2.23-.35-6.14,0-8.17.12-4.23.27-4.08-1.16,2.38-5.55,4.07-6.29a3.63,3.63,0,0,0,.8,2.16,5.58,5.58,0,0,1,1.54-4.75s6.36,2.91.8,5.83A5.81,5.81,0,0,0,33,61.21m3.79-7a.51.51,0,0,0-.07.1A.86.86,0,0,0,36.75,54.22Z"/><path class="cls-1" d="M35.21,59s.23-3.14,1.77-4.23l.31-.23c-.32-.19-.54-.29-.54-.29A5.58,5.58,0,0,0,35.21,59m1.54-4.75a.51.51,0,0,0-.07.1A.86.86,0,0,0,36.75,54.22Z"/><path class="cls-1" d="M31.46,64.24s-2.94-.59,3-6.78a5,5,0,0,1-.08-.65c-1.69.74-3.91,4.85-4.07,6.29-.07.68.39,1,1.12,1.14"/><path class="cls-6" d="M31.46,64.24c0-.21,1.2-3,5.4-2.52s4.28-.3,5.52-.45a24,24,0,0,1,3.27-.66,2.07,2.07,0,0,0,.48,1.27.88.88,0,0,1-.71-.52s-.08.12.06.39c0,0-2.6.15-4.15.44,0,0,2.47,0,3.5,0,0,0,.6-.25.92.18,0,0-1.5.31,0,2a2,2,0,0,1-1.6-1,1.42,1.42,0,0,0,.66,1.13s-1.31-.27-2.23-.35-6.14,0-8.17.12a13.76,13.76,0,0,1-3,0"/><path class="cls-6" d="M36.75,54.22a4.52,4.52,0,0,1-1.38,5.88h0a5,5,0,0,1,2.18-.05c5.56-2.92-.8-5.83-.8-5.83"/><path class="cls-9" d="M48.27,62.12a2.25,2.25,0,0,0-1.74-.27c-1.6-2.57,1.86-1.47,1.74.27"/><path class="cls-9" d="M47.6,64.68a2.26,2.26,0,0,0-1.7-.45c-1.31-2.73,2-1.26,1.7.45"/><path class="cls-6" d="M32.78,62.34a.18.18,0,1,0,.24-.08h0a.35.35,0,0,0,.16-.16.35.35,0,0,0-.15-.47.36.36,0,0,0-.47.16.34.34,0,0,0,0,.26.34.34,0,0,0-.09-.08.28.28,0,0,0-.38.13.28.28,0,0,0,.13.37l0,0a.18.18,0,0,0-.08.07.14.14,0,0,0,.07.2.14.14,0,0,0,.19-.06.14.14,0,0,0-.06-.2.29.29,0,0,0,.21-.16.25.25,0,0,0,0-.19.27.27,0,0,0,.13.1.28.28,0,0,0,.12,0,.09.09,0,0,0,0,.06"/><path class="cls-6" d="M36.54,59.15a.19.19,0,0,0,.08.24.19.19,0,0,0,.25-.08.18.18,0,0,0-.08-.24h0a.41.41,0,0,0,.16-.16.34.34,0,0,0-.16-.46.34.34,0,0,0-.46.15.34.34,0,0,0,0,.26.39.39,0,0,0-.1-.08.28.28,0,0,0-.25.5l.05,0a.13.13,0,0,0-.08.08.14.14,0,0,0,.06.19.14.14,0,0,0,.2-.06.15.15,0,0,0-.06-.2.29.29,0,0,0,.21-.15.28.28,0,0,0,0-.2.43.43,0,0,0,.12.11.31.31,0,0,0,.13,0l-.05.06"/><path class="cls-1" d="M36.15,56.76a.19.19,0,1,0,.25-.08h0a.33.33,0,0,0,.17-.16.35.35,0,0,0-.16-.46.34.34,0,0,0-.46.15.34.34,0,0,0,0,.26l-.1-.07a.27.27,0,0,0-.37.12.28.28,0,0,0,.12.38h.05s-.07,0-.08.08a.15.15,0,0,0,.06.2.16.16,0,0,0,.2-.07.15.15,0,0,0-.06-.2.28.28,0,0,0,.21-.15.34.34,0,0,0,0-.2.32.32,0,0,0,.12.11.31.31,0,0,0,.13,0l-.05.06"/><path class="cls-10" d="M19.87,52.82A12.26,12.26,0,0,1,23.75,48h0a4.15,4.15,0,0,0-3.85-2.92,3.75,3.75,0,0,1-2.77-1.73c-1.17-2,.08-4.8.6-6.86l.08-.31L18,36a7.8,7.8,0,0,1,1.9-1.68A10.89,10.89,0,0,1,21,33.62c-1.31.22-2.62.46-3.92.7l-3.82,15.1a6,6,0,0,1,5.37,1.52,5.57,5.57,0,0,1,1.25,1.88"/><path class="cls-11" d="M56.53,19.07l0,6.3-1.4.56c-12.25-3-20.46-3-32.84,0l-1-.41,0-6.44c6-3,29.23-3,35.24,0m-1.44-1.56c.51.14,1,.28,1.43.44L59.33,4.38,57.58,6.05ZM38.91,0,31.32,7.41h0A4.33,4.33,0,0,1,34,11.35,4.53,4.53,0,0,1,29.3,15.7a4.53,4.53,0,0,1-4.69-4.35,4.15,4.15,0,0,1,1-2.64L18.16,2.8,21.29,18c7.19-2.5,23.76-2.73,32.71-.71L56.3,7.1,52.93,9.9a3.89,3.89,0,0,1,.27,1.45,4.7,4.7,0,0,1-9.38,0,4.33,4.33,0,0,1,2.67-3.93,5.51,5.51,0,0,1-5.24-3.78l-2.57,9.87Z"/><path class="cls-10" d="M45.3,24.09l.94-7a51.59,51.59,0,0,1,7,.94l-.62,7.33a72.6,72.6,0,0,0-7.32-1.26m1.06-7.92a57.18,57.18,0,0,1,7,.93h0l2.86-9.9L52.93,9.9a3.89,3.89,0,0,1,.27,1.45,4.7,4.7,0,0,1-9.38,0,4.33,4.33,0,0,1,2.67-3.93,6.85,6.85,0,0,1-2-.41c-4.75,5.93,1.83,9.16,1.83,9.16Z"/><path class="cls-2" d="M55.09,17.51c.51.14,1,.28,1.43.44L59.33,4.38,57.58,6.05Zm-2.59.35-1.09,7.23c1.21.25,2.45.53,3.74.84l1.4-.56,0-6.3A16.67,16.67,0,0,0,52.5,17.86Zm.14-.9c.47.09.93.18,1.36.28L56.3,7.1,52.93,9.9l1.93-.68L52.64,17Z"/><path class="cls-4" d="M27.33,17.53l-.45,7.39c-1.06.21-2.14.44-3.27.7l.53-7.5a32.18,32.18,0,0,1,3.19-.59m.14-2.17a4.37,4.37,0,0,1-2.86-4l-.4,5.81c1-.21,2.05-.4,3.18-.56Z"/><path class="cls-4" d="M30,17.21l-.33,7.22-1.34.22.51-7.32L30,17.21m.07-1.57a4.93,4.93,0,0,1-.78.06H29l0,.72,1.13-.12Z"/><path class="cls-4" d="M36.14,16.85,36,23.76c-.76,0-1.52.09-2.3.16l.19-7,2.26-.08m.3-14.44L34.21,4.59,33.9,16c.75,0,1.5-.07,2.26-.09Z"/><path class="cls-4" d="M38.7,16.81l0,6.88h-1l0-6.88h.9M38.91,0l-1,1-.07,14.89h.88V13.51Z"/><path class="cls-10" d="M51.75,88.64c-4.32-.27-8.74-.42-13.16-.44s-8.84.17-13.17.44a39.86,39.86,0,0,0,13.17,7.2,39.76,39.76,0,0,0,13.16-7.2"/><path class="cls-12" d="M14.23,72.1l-1.05.73.68.56,0,.1-.07.23-.6,2.1L13.1,76c-.53,1.8-1.08,3.58-1.67,5.36l-2,.29c.74-2.1,1.42-4.22,2.08-6.35l.56-.07h0c-.16-.14-.24-.2-.41-.33l-1.16-1c-.85,2.67-1.72,5.32-2.68,8l-2,.28C7,79.1,8.08,76,9.13,72.8l.08-.23c.29-.87.44-1.3.74-2.16L10,70.2c.51-1.45,1-2.89,1.58-4.33l1.66-.16c-.68,1.87-1.32,3.75-1.94,5.65l1.12,1c.69-2.26,1.41-4.5,2.19-6.74l1.64-.12C15.54,67.67,14.87,69.88,14.23,72.1Z"/><path class="cls-12" d="M17.66,72.19l-.4-.23c-.37,1.43-.73,2.86-1.1,4.29l-.52,1.94-1.91.25c.23-.78.35-1.17.58-2,.29-1,.43-1.57.72-2.61l.67-2.45.53-.06-.45-.27v0l-.37-.23.06-.19c.19-.68.29-1,.49-1.7l.05-.16.35.23c.33-1.13.67-2.25,1-3.38l1.63-.1c-.43,1.47-.84,2.93-1.23,4.41l.38.23Z"/><path class="cls-12" d="M25.06,65.24c-.21,1-.41,1.93-.59,2.89l0,.16c-.13.63-.18.95-.3,1.58l0,.17c-.25,1.35-.49,2.7-.73,4-.19,1-.39,2.11-.6,3.16l-1.9.25c.23-1.07.45-2.14.67-3.21.32-1.61.64-3.22,1-4.82l.53,0c-.69-.41-1-.62-1.68-1-.71,3.1-1.36,6.22-2.08,9.32L17.38,78c.88-3.49,1.67-7,2.56-10.49l0-.18L20,67.1l.4-1.46,0-.18c.82.61,1.66,1.2,2.52,1.75.17-.76.26-1.13.44-1.89Z"/><path class="cls-12" d="M30.49,71v.14c-.06.6-.09.91-.14,1.51l0,.16-.5-.22c-.08.86-.13,1.29-.22,2.15h0c-.08.67-.11,1-.19,1.67L26,76.84,24,77.09c.13-.7.19-1,.31-1.74.47-2.81.92-5.61,1.43-8.41.13-.7.2-1,.35-1.74l1.6-.08,1.34-.06L30.69,65c-.09.67-.14,1-.22,1.68s-.13,1.11-.22,1.86l-1.69.13c.1-.75.15-1.13.26-1.89l-1.38.09c-.44,2.76-.82,5.52-1.23,8.28l1.54-.18c.13-1,.25-1.94.37-2.9l.47-.05-.87-.41L28,69.72C29,70.24,29.46,70.48,30.49,71Z"/><path class="cls-12" d="M36.85,64.41c0,.62,0,.93,0,1.54l.05,1.75a6.09,6.09,0,0,0-1.7,0V66l-1.42.15c0,.88,0,1.32,0,2.19,1.1.46,2.17.88,3.23,1.41v.15l0,1.39v.14c0,.8,0,1.2.07,2,0,.61,0,.92,0,1.54a5.72,5.72,0,0,0-1.91.23l-1.59.22-1.92.26c0-.64,0-1,.07-1.61,0-1.08.06-1.62.09-2.69l1.81-.22c0,1.07,0,1.6,0,2.67l1.56-.21c0-1.07,0-1.6,0-2.67l.56-.07h0l-.53-.2c-1.09-.42-2.17-.86-3.25-1.31v-.16c0-.58,0-.87.06-1.45v-.14c0-.52,0-.78.07-1.3s.05-1,.09-1.61l1.65-.14,1.38-.13A6.65,6.65,0,0,1,36.85,64.41Z"/><path class="cls-12" d="M41,64.75l1.63.1c.07.64.11,1,.19,1.61.15,1.32.32,2.63.5,4l0,.22.2,1.54c-1.16-.67-2.32-1.35-3.47-2q.24,2.63.45,5.25l-1.91-.26c-.1-2-.22-3.9-.34-5.86l.46,0L38.23,69l-.45-.28V68.6c0-.56,0-.84-.07-1.4v-.13l.43.26c0-.5,0-.76-.06-1.26s0-.93,0-1.55l1.6.13Zm.45,4.56c-.11-1-.21-2-.31-3l-1.38-.12c.06.87.1,1.31.17,2.18Z"/><path class="cls-12" d="M48.69,66.83c.53,2.74,1.1,5.46,1.65,8.2.13.67.2,1,.33,1.69l-1.91-.24-1.6-.21L45.25,76c-.09-.65-.14-1-.23-1.63-.38-2.62-.78-5.23-1.14-7.85-.09-.65-.13-1-.21-1.63l1.65.09,1.38.06,1.66.07C48.49,65.81,48.55,66.15,48.69,66.83Zm-.23,8c-.49-2.69-1-5.37-1.47-8.07l-1.42-.08c.43,2.66.88,5.31,1.32,8Z"/><path class="cls-12" d="M52.52,65.3l1.66.08c.18.71.27,1.07.46,1.79.28,1.09.57,2.19.86,3.29l-.73.42,1,.57,0,.08,0,.17.43,1.62,0,.16,1.08,4.11-1.92-.25c-.38-1.58-.77-3.17-1.16-4.75l.56.06,0,0-.6-.35-1.71-1c.46,1.94.91,3.89,1.35,5.83l-1.91-.24q-.72-3.37-1.45-6.74l0-.17-.33-1.55,0-.15c-.12-.55-.18-.83-.29-1.38l-.35-1.72,1.67.07Zm1.21,5c-.27-1.09-.53-2.19-.8-3.28L51.51,67l.55,2.4Z"/><path class="cls-12" d="M60.53,67.55,59,67.44c1.09,3.6,2.2,7.19,3.3,10.79L60.38,78c-1-3.55-2.06-7.1-3.08-10.65l-1.54-.1c-.2-.72-.3-1.08-.49-1.8l1.51.07,1.65.09,1.5.09Z"/><path class="cls-12" d="M65.41,65.87c.38,1,.56,1.44.94,2.4S67,69.89,67.41,71l-1.7-.19c-.39-1.07-.59-1.61-1-2.68L63.35,68l1.14,3.25,4.15,2.89,0,.09.06.14c.33.87.5,1.3.84,2.17l.09.21,1.21,3.1.94,2.39-2-.28-1.64-.24-2-.29-.77-2.33c-.43-1.3-.87-2.6-1.3-3.9l1.82.22c.47,1.31.93,2.63,1.4,3.94l1.59.22c-.49-1.33-1-2.67-1.49-4l.56.07,0,0-.67-.46-4.15-2.87-.06-.17,0-.06-.7-2.1-.07-.21-.63-1.88c-.31-.93-.47-1.4-.77-2.33l1.6.12,1.32.11Z"/><path class="cls-13" d="M13.18,72.83l.68.56c-.77,2.68-1.56,5.35-2.43,8l-2,.29c.74-2.1,1.42-4.22,2.07-6.35l.57-.07h0c-.16-.14-.24-.2-.41-.33l-1.16-1c-.85,2.67-1.72,5.32-2.68,8l-2,.28C7,79.11,8.07,76,9.12,72.85c1.61-.2,3.22-.38,4.83-.56Z"/><path class="cls-13" d="M14.31,76.48c-.23.79-.35,1.18-.58,2l1.91-.25C16.2,76.12,16.73,74,17.26,72l.39.23.08-.28-2.23.22C15.11,73.58,14.71,75,14.31,76.48Z"/><path class="cls-13" d="M17.38,78l1.91-.25c.48-2,.91-4,1.35-6.08l-1.77.17C18.39,73.85,17.9,75.91,17.38,78Z"/><path class="cls-13" d="M20.88,77.5l1.9-.25q.57-3,1.09-5.92l-1.76.16C21.71,73.5,21.32,75.5,20.88,77.5Z"/><path class="cls-13" d="M30.32,72.78c.07-.73.1-1.09.17-1.81l-.44-.21L27.8,71c0,.24,0,.36-.08.6l.87.42-.48.05c-.11,1-.23,1.93-.36,2.9l-1.54.18c.2-1.35.39-2.7.59-4.06L25,71.23c-.32,2-.64,3.91-1,5.86l5.39-.71c.08-.67.11-1,.19-1.67h0c.09-.86.14-1.29.22-2.15Z"/><path class="cls-13" d="M35.24,70.63l.53.2h0l-.56.07c0,1.07,0,1.6,0,2.67l-1.56.21c0-1.07,0-1.6,0-2.67l-1.81.22c0,1.43-.09,2.87-.16,4.3,1.8-.24,3.61-.55,5.42-.71,0-1.73-.12-3.46-.19-5.19A21.39,21.39,0,0,0,33.7,70Z"/><path class="cls-13" d="M38.58,75.12l1.91.26q-.21-2.62-.45-5.25c1.15.69,2.31,1.37,3.47,2-.09-.69-.14-1-.23-1.74-1.67-.17-3.33-.34-5-.53C38.39,71.64,38.5,73.38,38.58,75.12Z"/><path class="cls-13" d="M47.73,70.85c.24,1.32.49,2.63.73,4l-1.57-.18c-.21-1.31-.43-2.61-.65-3.91l-1.79-.17c.27,1.83.54,3.65.8,5.48l5.42.7c-.37-1.9-.76-3.81-1.15-5.71Z"/><path class="cls-13" d="M51.94,76.89l1.91.24c-.44-1.94-.89-3.89-1.35-5.83l1.71,1,.6.35,0,0-.56-.06c.39,1.58.78,3.17,1.16,4.75l1.92.25q-.78-3-1.58-6l-5.09-.45Q51.33,74,51.94,76.89Z"/><path class="cls-13" d="M60.38,78l1.91.25C61.66,76.15,61,74.08,60.38,72l-1.78-.17C59.19,73.88,59.79,75.93,60.38,78Z"/><path class="cls-13" d="M66.57,72.66c-1.11-.13-2.22-.26-3.33-.37l4.08,2.82.67.46,0,0-.56-.07c.5,1.34,1,2.67,1.49,4l-1.59-.22c-.47-1.31-.93-2.63-1.4-3.94l-1.82-.22,2.07,6.23,5.59.81q-1.59-4-3.17-8.1Z"/><path class="cls-14" d="M22,84v-.24l.21,0V82.3l-.21,0V82h.82v.24l-.21,0v1.4h.56l0-.25h.3V84Z"/><path class="cls-14" d="M23.59,82.26V82h.82v.24l-.21,0v1.42l.21,0V84h-.82v-.24l.22,0V82.3Z"/><path class="cls-14" d="M24.57,83.76l.21,0V82.3l-.21,0V82h1.57v.54h-.3l0-.23h-.65v.54h.7v.31h-.7v.54l.22,0V84h-.82Z"/><path class="cls-14" d="M27.57,83.13H26.9v.57h.64v-.24h.31V84H26.29v-.24l.21,0V82.3l-.21,0V82h1.56v.54h-.3l0-.23H26.9v.49h.67Z"/><path class="cls-14" d="M29.62,83.31h-.77V83h.77Z"/><path class="cls-14" d="M31.44,82a.8.8,0,0,1,.83.83v.33a.78.78,0,0,1-.24.59.81.81,0,0,1-.59.23h-.9v-.24l.22,0V82.3l-.22,0V82h.9Zm-.29.31V83.7h.27a.4.4,0,0,0,.33-.15.55.55,0,0,0,.12-.37v-.34a.57.57,0,0,0-.12-.37.39.39,0,0,0-.33-.14Z"/><path class="cls-14" d="M33.36,82a.81.81,0,0,1,.52.15.54.54,0,0,1,.2.43.45.45,0,0,1-.08.26.76.76,0,0,1-.24.18.39.39,0,0,1,.25.17.56.56,0,0,1,.08.3v.1a.15.15,0,0,0,0,.1s0,0,.08.05h0V84h-.2a.33.33,0,0,1-.28-.1.46.46,0,0,1-.08-.27v-.12a.31.31,0,0,0-.07-.22.29.29,0,0,0-.22-.09h-.33v.52l.22,0V84h-.82v-.24l.21,0V82.3l-.21,0V82h.89Zm-.29.87h.28a.37.37,0,0,0,.25-.07.25.25,0,0,0,.08-.2.29.29,0,0,0-.08-.21.32.32,0,0,0-.24-.08h-.29Z"/><path class="cls-14" d="M35.66,83.13H35v.57h.64l0-.24H36V84H34.38v-.24l.21,0V82.3l-.21,0V82H36v.54h-.31l0-.23H35v.49h.67Z"/><path class="cls-14" d="M36.14,83.76l.14,0L36.89,82h.4l.6,1.72.14,0V84h-.67v-.24l.14,0-.09-.27h-.64l-.09.27.14,0V84h-.68Zm.72-.59h.46l-.23-.69h0Z"/><path class="cls-14" d="M40.08,82.54h0L39.54,84h-.27l-.53-1.46h0l0,.87v.31l.22,0V84h-.83v-.24l.22,0V82.3l-.22,0V82h.73l.51,1.46h0L39.92,82h.73v.24l-.21,0v1.42l.21,0V84h-.82v-.24l.21,0v-.31Z"/><path class="cls-14" d="M42.34,83.31h-.76V83h.76Z"/><path class="cls-14" d="M44.16,82a.86.86,0,0,1,.53.15.56.56,0,0,1,.19.43.45.45,0,0,1-.08.26.66.66,0,0,1-.24.18.39.39,0,0,1,.25.17.48.48,0,0,1,.08.3v.1a.15.15,0,0,0,0,.1s0,0,.08.05h0V84h-.2a.34.34,0,0,1-.28-.1.46.46,0,0,1-.08-.27v-.12a.31.31,0,0,0-.07-.22.28.28,0,0,0-.22-.09h-.33v.52l.22,0V84h-.82v-.24l.21,0V82.3l-.21,0V82h.89Zm-.29.87h.28a.37.37,0,0,0,.25-.07.25.25,0,0,0,.08-.2.29.29,0,0,0-.08-.21.32.32,0,0,0-.24-.08h-.29Z"/><path class="cls-14" d="M46.46,83.13h-.67v.57h.64l0-.24h.3V84H45.18v-.24l.21,0V82.3l-.21,0V82h1.57v.54h-.31v-.23h-.64v.49h.67Z"/><path class="cls-14" d="M46.94,83.76l.14,0L47.69,82h.4l.6,1.72.14,0V84h-.67v-.24l.14,0-.09-.27h-.64l-.09.27.14,0V84h-.68Zm.72-.59h.46l-.23-.69h0Z"/><path class="cls-14" d="M49,84v-.24l.21,0V82.3l-.21,0V82h.82v.24l-.22,0v1.4h.56l0-.25h.31V84Z"/><path class="cls-14" d="M50.6,82.26V82h.82v.24l-.21,0v1.42l.21,0V84H50.6v-.24l.21,0V82.3Z"/><path class="cls-14" d="M53.31,82v.53H53l0-.22h-.36v1.39l.21,0V84H52v-.24l.21,0V82.33h-.36l0,.22h-.3V82Z"/><path class="cls-14" d="M54.19,82.26l-.16,0,.3.65h0l.31-.65-.16,0V82h.75v.24l-.17,0-.54,1v.42l.21,0V84h-.82v-.24l.22,0v-.44l-.53-1-.17,0V82h.75Z"/></g></g></svg>