<svg xmlns="http://www.w3.org/2000/svg" viewBox="0 0 78.39 20.5"><defs><style>.cls-1{fill:#4d4d4d;stroke:#4d4d4d;stroke-miterlimit:10;stroke-width:0.5px;}.cls-2{fill:#1a1a1a;}</style></defs><title>Asset 25@20px</title><g id="Layer_2" data-name="Layer 2"><g id="Layer_2-2" data-name="Layer 2"><path class="cls-1" d="M7,8.58l-1.15.8L7,10.2V20.25H4.6V12.36h.73l0,0-.69-.49-2-1.41v9.82H.25V.25H2.62v7l2,1.41V.25H7Z"/><path class="cls-1" d="M11.73,9.16,11.1,8.8v8H8.73l0-2.48V7.89h.71l-.73-.42v0l-.61-.36V4.51l.61.33V.57H11.1V6.22l.63.35Z"/><path class="cls-1" d="M20,.57V16.78H17.62V6.09h.73l-2.7-1.56V16.78H13.27V.57l4.35,2.52V.57Z"/><path class="cls-1" d="M28.94,9.16v2.58l-.69-.4v3.07h0v2.37H21.56V.57h6.71v5H25.92V3h-2V14.41h2V10.34h.62l-1.23-.7V7.05Z"/><path class="cls-1" d="M36.5.57V5.64H34.12V3h-2V6.22L36.5,8.74v8H29.77V10.43h2.37v4h2v-4h.73l0,0-.69-.4L29.77,7.45V.57H36.5Z"/><path class="cls-1" d="M42.6.57H45v10.8L40.62,8.84v7.94H38.25v-9h.62l-.62-.35-.61-.35V4.53l.61.34V.57H42.6Zm0,6.82V3h-2V6.24Z"/><path class="cls-1" d="M53.27,3V16.78H46.54V.57h6.73ZM50.89,14.41V3h-2V14.41Z"/><path class="cls-1" d="M59.19.57h2.37V7.32L60.42,8l1.14.67v8.14H59.19V10.39h.73l-.05,0-.68-.4-2-1.15v8H54.83V.57h4.36Zm0,6.8V3h-2V6.22Z"/><path class="cls-1" d="M69.85,3H67.67V16.78H65.29V3H63.12V.57h6.73Z"/><path class="cls-1" d="M78.14.25V6.5H75.77V3.18h-2v4l4.35,3.11v9.92H71.42V12.41h2.37v4.91h2v-5h.73l0,0-.69-.49L71.42,8.73V.25h6.72Z"/><polygon class="cls-2" points="5.83 9.38 6.98 10.2 6.98 20.25 4.6 20.25 4.6 12.36 5.33 12.36 5.29 12.33 4.6 11.84 2.62 10.43 2.62 20.25 0.25 20.25 0.25 8.79 6.67 8.79 5.83 9.38"/><polygon class="cls-2" points="8.75 14.3 8.73 16.78 11.1 16.78 11.1 8.8 11.73 9.16 11.73 8.79 8.75 8.79 8.75 14.3"/><rect class="cls-2" x="13.27" y="8.79" width="2.37" height="7.99"/><rect class="cls-2" x="17.62" y="8.79" width="2.38" height="7.99"/><polygon class="cls-2" points="28.94 11.74 28.94 9.16 28.3 8.79 25.29 8.79 25.29 9.63 26.52 10.34 25.89 10.34 25.89 14.41 23.94 14.41 23.94 8.79 21.56 8.79 21.56 16.78 28.27 16.78 28.27 14.41 28.25 14.41 28.25 11.34 28.94 11.74"/><polygon class="cls-2" points="34.12 9.97 34.81 10.37 34.85 10.38 34.12 10.38 34.12 14.41 32.15 14.41 32.15 10.43 29.77 10.43 29.77 16.78 36.5 16.78 36.5 8.79 32.09 8.79 34.12 9.97"/><polygon class="cls-2" points="38.25 16.78 40.62 16.78 40.62 8.84 44.98 11.37 44.98 8.79 38.25 8.79 38.25 16.78"/><polygon class="cls-2" points="50.9 8.79 50.9 14.41 48.92 14.41 48.92 8.79 46.54 8.79 46.54 16.78 53.27 16.78 53.27 8.79 50.9 8.79"/><polygon class="cls-2" points="54.83 16.78 57.21 16.78 57.21 8.82 59.19 9.97 59.87 10.37 59.92 10.38 59.19 10.38 59.19 16.78 61.56 16.78 61.56 8.79 54.83 8.79 54.83 16.78"/><rect class="cls-2" x="65.29" y="8.79" width="2.38" height="7.99"/><polygon class="cls-2" points="76 8.79 71.5 8.79 75.77 11.84 76.46 12.33 76.5 12.36 75.77 12.36 75.77 17.32 73.79 17.32 73.79 12.41 71.42 12.41 71.42 20.25 78.14 20.25 78.14 10.33 76 8.79"/></g></g></svg>