<svg xmlns="http://www.w3.org/2000/svg" viewBox="0 0 750.5 968.54"><defs><style>.cls-1{fill:#cfbe40;}.cls-1,.cls-10,.cls-11,.cls-2,.cls-3,.cls-4,.cls-5,.cls-6,.cls-7,.cls-8,.cls-9{fill-rule:evenodd;}.cls-2{fill:#c04e24;}.cls-4{fill:#ffed83;}.cls-5{fill:#b7991c;}.cls-6{fill:#547811;}.cls-7{fill:#fbfcfa;}.cls-8{fill:#fff100;}.cls-9{fill:#bbbcbf;}.cls-10{fill:#ed9707;}.cls-11{fill:#edd437;}.cls-12,.cls-14{fill:#fff;}.cls-12{stroke:#fff;stroke-miterlimit:10;stroke-width:2px;}.cls-13{fill:#b3b3b3;}</style></defs><title>Asset 23</title><g id="Layer_2" data-name="Layer 2"><g id="Layer_1-2" data-name="Layer 1"><path class="cls-1" d="M590.74,792.27C545.66,872.69,462.6,927.64,381,965.81l-5.83,2.73-5.83-2.73c-81.5-38.15-166.92-93.29-212.51-173.63-2.84.33-5.67.68-8.51,1l-6.22,21.6-26.26,3.83c-15.75,2.3-31.42,5.16-47.07,8L0,839.36,76.4,612.87l8.74-1q21.38-2.31,42.76-4.55c2.61-16.13,6.06-31.9,9.24-48,.81-4.1,3.76-19.09,3-25a34.49,34.49,0,0,0-5.6.75c-14.64,3.11-29.11,7-43.56,10.84L28,562.83,91.36,289.38,100,287.6c94.75-19.53,190.87-36.52,288-35.18,88.38,1.22,176,17.31,262.39,35l8.65,1.77,2,8.61q28,121.4,56.34,242.69l5.19,22.31L659.45,546c-14.44-3.85-28.91-7.63-43.54-10.69a28,28,0,0,0-3.3-.5c-.87,5.77,1.29,19.86,1.9,23.81,2.41,15.5,5.2,30.75,7.27,46.25q22.14,3.33,44.21,7.07l8.13,1.37,31.62,94.32.14.08L750.5,839.33,681.62,826.7c-15.65-2.87-31.33-5.67-47.08-7.94L608.26,815,602,793.51q-5.65-.64-11.3-1.24"/><path class="cls-2" d="M590.74,792.27C545.66,872.69,462.6,927.64,381,965.81l-5.83,2.73-5.83-2.73c-81.5-38.15-166.92-93.29-212.51-173.63-2.84.33-5.67.68-8.51,1l-6.22,21.6-26.26,3.83c-15.75,2.3-31.42,5.16-47.07,8L0,839.36l20.5-17.75L66.3,730l227.41-60.49L613,722.34l117,99.25,20.53,17.74L681.62,826.7c-15.65-2.87-31.33-5.67-47.08-7.94L608.26,815,602,793.51q-5.65-.64-11.3-1.24"/><path class="cls-3" d="M375.21,953.36c116-54.28,177-116.12,207.8-175.72q15,1.53,29.69,3.26L619,802.63l17.51,2.52c15.92,2.29,31.78,5.13,47.6,8L730,821.59l-35.59-105-.15-.1-30.52-91c-18.88-3.18-36.91-6-54.3-8.55-6.77-62.18-24.51-102.17,9.31-95.09,14.87,3.12,29.6,7,44.28,10.87l40.93,10.92c-26.06-111.91-34.36-147.29-56.35-242.72-220.87-45.23-313.1-47.59-544.82.19L46.53,543.63l40.92-11c14.68-3.93,29.4-7.85,44.27-11,38.84-8.24,16.87,33.32,8.22,98.27-17.06,1.77-34.79,3.66-53.32,5.66l-66.12,196,45.82-8.43c15.82-2.92,31.66-5.81,47.57-8.14l17.49-2.54,6.27-21.76q13.29-1.77,26.85-3.29c30.77,59,92.6,120.63,210.71,175.91"/><path class="cls-2" d="M565.4,611.09c-1.06-8.09-2.33-16.21-3.7-24.42-5.25-31.37-14.59-70.06,12.56-94.68,14.9-13.5,34.2-16.2,53.26-12.21q9.24,1.94,18.42,4.18-17-73.23-34-146.47c-74-14.72-149.37-27.34-224.79-28.38-83.6-1.16-166.89,12.23-248.79,28.55l-33.9,146.22c6.09-1.5,12.19-2.92,18.33-4.22,20.74-4.41,41.85-1.86,57.57,13.74,25.95,25.74,15.09,63.86,8.69,95-1.86,9.1-3.59,18.12-5,27.11,162.65-15.88,260.16-18.8,381.37-4.4"/><path class="cls-4" d="M165.29,332.43q-13.48,2.55-26.92,5.23l-33.9,146.22c6.09-1.5,12.19-2.92,18.33-4.22,1.83-.39,3.67-.73,5.5-1Z"/><path class="cls-1" d="M248.34,307.29a246.33,246.33,0,0,1,29.43-26.76c24.78-19.42,53.45-35,84.24-42.23l5.75-1.36,5.26,2.68c14.82,7.56,38.82,16.47,55.55,16.91l3.89.1,3.42,1.88c11.43,6.26,23.74,15.84,33.69,24.79C484.42,288,501,296.57,512.4,306.19c12.46,10.55,21.46,24.22,22.48,40.89.6,9.76-1.41,20.86-6.73,29.57l.18.79c2.19,2.6,4.09,5.43,5.83,7.91A136.69,136.69,0,0,1,545,403.49c7.72-1.95,15.72-2.23,22.77.23,6.82-9.83,17-16.53,28.77-17.31a64.15,64.15,0,0,1,2.81-7.5c3.54-7.84,9.12-14.52,16.49-17.61,6.79-13.73,12.84-28.95,16.09-43.49l5.51-24.62,19.32,4.46,6.18,18.61c8.24,24.85,10.59,57.82,7.76,84.68-13.81,114-129.1,132-129.1,132l-9-37.6S239,493.65,230,465.16s-37.3-28.27-37.3-28.27c-11-1.8-21-6.73-26.8-16.72-11.35-19.44.76-46.55,5.85-66.48l.75-2.95,1.78-2.47c4.37-6.07,12.35-12.2,18.46-16.28,16.53-11,36.43-18.93,55.59-24.7"/><path class="cls-3" d="M196.61,421.2c-31.86-4.25-16.41-35.48-9.25-63.52,0,0,14.71-20.46,70-36.24,0,0,44.5-52.4,108.38-67.47,0,0,35.16,17.94,62.44,18.66,0,0,15.37,8.42,33.3,25.06h0s55.2,15.2,57.35,50.37c0,0,1.05,17.45-8.4,24.85,1.8,5.29,1.88,6.39,3.1,12.11,0,0,17.1,19.38,22.43,39.61h0s24.32-14.82,33-.17a73.16,73.16,0,0,0,7.55-2.17c0-.05,8.11-26,29.66-18.58,1.3-1.26,2.59-2.6,3.87-4,0-.09,3.67-25.93,16.6-24,6.91-13,16.53-34,21.08-54.35,0,0,51.41,155-106,211.58,2,29.39-6.78,64.69-23,89.24L408.77,705.4s-18.66,30.15-91.87,20.82S211.4,704.69,206.38,699s-28.59-63-28.59-63c1.26-63.26-5.72-126.71,52.21-170.73v0c6.52-30.91-33.4-44-33.4-44Z"/><path class="cls-5" d="M282,353.8s10.05,19.2,42.35,11.12c0,0,7.18-13.81,19-13.63,0,0-15.42-6.82-27.27,4.84-8,5-27.28,4.48-34.09-2.33M241.44,388s.54-20.63,25.66-23.32a21.71,21.71,0,0,0-5.47,5.92s1.08,6.46,3.5,8.79c0,0-1.17,3.23-8.26,3.94S248,383.05,241.44,388Zm-42.86-4.64c-10.68,33.9,11.13,12.76,37.4,27,31.26,16.91,33.18,9.26,49.22-6.83,15.15-15.2,38.29-31.88,65.79-31.09,0,0-22.5,2.76-44.76,31.29,0,0,24.59-16.69,62.26-10.23,0,0,5.74-45.93,66.75-20.09,0,0-25.84-3.23-39.12,7.89,0,0,51.5,43.43-.17,110.53,0,0,31.22-17.23,42.7-55.27,0,0,9.33,35.89-43.06,103.35,0,0,33.37-18.65,46.65-45.57,0,0,10,35.17-34.09,81.1,0,0,65.37-33.43,82.85-107.8,1.13-5.22,5.49-28.7-1.78-52.43a62,62,0,0,1,11.75,30c13.29-1,18.93-12.24,18.93-12.24,1.43-16.15-21.84-36.46-21.84-36.46h0s-6.15-38.72-26.78-54.69c0,0,14.52,3.31,25.58,21.26,5.87-8.06,4.38-18.39,4.38-18.39C486.89,317.38,452,312.3,452,312.3c-1.71-1.64-3.46-3.27-5.24-4.87,1.81,21.39-11.31,38.48-11.31,38.48,9-32.66-12.28-56.3-12.28-56.3a147.32,147.32,0,0,1-31.05-6.44c2.86,15.78-5.65,30.26-5.65,30.26,5.38-24.76-22.57-41.2-22.57-41.2-23.85,6.68-46.17,19.36-65.55,34.54-4.21,3.3-8.74,7-13.15,11,0,0,8.42,11,22.14,2.22s38.58-31,60.74-1.89c0,0-12.65-5.92-21.53-3.76,0,0,4.21,15.07-9.87,18.84,0,0,9.51,2.78,18-2.16,0,0-23.33,23.15-54.36,4.85,0,0-.36,4.84,9.15,10.76,0,0-15.73-1.56-18.13-16.86a18.34,18.34,0,0,1-11-7.53c-2,2-4,3.94-5.9,5.93l14.4,15.23-21.74-6.83-5,1.44c-5.44,1.55-11,3.3-16.56,5.27-16.22,22.26-12.15,42.88-12.15,42.88-7.44-13-9-24.69-7.91-34.52a129.78,129.78,0,0,0-11.95,6.62A74.37,74.37,0,0,0,203,366s-.76,11.89,5.52,22.48A32.15,32.15,0,0,1,198.58,383.34Z"/><path class="cls-1" d="M291.33,329.76a18.34,18.34,0,0,1-11-7.53c-2,2-4,3.94-5.9,5.93,0,0,11,4.31,16.9,1.6"/><path class="cls-1" d="M496.86,363c5.87-8.06,4.38-18.39,4.38-18.39C486.89,317.38,452,312.3,452,312.3s47.93,18.18,44.9,50.74"/><path class="cls-1" d="M428.08,296.57a50.62,50.62,0,0,0-4.95-7,147.32,147.32,0,0,1-31.05-6.44s16.76,17.11,36,13.4"/><path class="cls-6" d="M368,318.09s-12.65-5.92-21.53-3.76c0,0,4.21,15.07-9.87,18.84,0,0,9.51,2.78,18-2.16,0,0-23.33,23.15-54.36,4.85,15.4,17,67.5,14.8,73.44-7.76a26.78,26.78,0,0,1-13.1,8.61s10.92-8.26,7.39-18.62"/><path class="cls-6" d="M241.44,388s3.84-1.74,13.44.5,18-2.6,17.94-8.17c0,0-1.08,2.6-6.46,4.67a12.85,12.85,0,0,0,5.57-8.07s-5.44-5.93-4.83-12.25a21.71,21.71,0,0,0-5.47,5.92s1.08,6.46,3.5,8.79c0,0-1.17,3.23-8.26,3.94s-8.88-.26-15.43,4.67"/><path class="cls-1" d="M224.18,405.91h0Zm-25.6-22.57C190.5,409,201,403.13,218,404.92,195.09,399.87,198.58,383.34,198.58,383.34Z"/><path class="cls-1" d="M225.45,351.63a129.78,129.78,0,0,0-11.95,6.62A74.37,74.37,0,0,0,203,366s-.76,11.89,5.52,22.48c0,0-7.84-17.94,16.93-36.89"/><path class="cls-1" d="M268.28,336.94l-1.19-.38-5,1.44c-5.44,1.55-11,3.3-16.56,5.27-16.22,22.26-12.15,42.88-12.15,42.88S240.83,350.55,268.28,336.94Z"/><path class="cls-1" d="M363.86,272.23c-23.85,6.68-46.17,19.36-65.55,34.54-4.21,3.3-8.74,7-13.15,11a15.84,15.84,0,0,0,10.58,5.57c0-.05,18-27.41,68.12-51.1"/><path class="cls-6" d="M400.38,385.52l.28.32Zm34.86-12.16s-25.84-3.23-39.12,7.89h.05l0,0,0,0,0,0h0l0,0,.1.1,0,0,0,0,.17.15.1.09.19.18.12.11.2.19.18.17.24.23.2.21.26.25.23.24.27.27.25.26.27.28.28.29.33.37.29.31c.1.12.22.24.33.36l.28.32.39.44c.1.12.21.24.31.37l.36.42.34.41.4.48.31.38.45.56.27.35.48.62.29.38c.18.23.35.47.52.7l.22.3c12,16.49,28,52.43-9.05,100.53,0,0,31.22-17.23,42.7-55.27,0,0,9.33,35.89-43.06,103.35,0,0,33.37-18.65,46.65-45.57,0,0,10,35.17-34.09,81.1,0,0,31.38-16,56.47-50.64l.52-.73h0c.41-.58.83-1.16,1.24-1.75l.42-.61,1.17-1.71c.18-.26.35-.53.53-.78l1-1.59c.25-.37.49-.75.73-1.13s.55-.85.82-1.29.53-.84.79-1.27l.73-1.2c.3-.51.61-1,.91-1.54.19-.33.38-.66.58-1,.34-.6.68-1.19,1-1.79l.5-.89,1-1.88.45-.85c.35-.67.7-1.34,1.05-2l.37-.73c.37-.73.73-1.47,1.09-2.21l.28-.58c.37-.78.73-1.56,1.1-2.35l.22-.5c.39-.84.77-1.7,1.14-2.56l.16-.38c.39-.9.77-1.81,1.15-2.73l.13-.33c.37-.91.73-1.82,1.08-2.75l.12-.32c.37-.94.72-1.9,1.06-2.86l.08-.23c.36-1,.72-2,1.06-3.07l0-.09c.35-1,.69-2.1,1-3.17l0-.17c.32-1,.63-2.09.93-3.14l.05-.19c.3-1.07.59-2.14.88-3.23l0-.13c.29-1.12.57-2.26.84-3.4,1.13-5.22,5.49-28.7-1.78-52.43a62,62,0,0,1,11.75,30c13.29-1,18.93-12.24,18.93-12.24,1.43-16.15-21.84-36.46-21.84-36.46h0s-6.15-38.72-26.78-54.69c0,0,34.27,69.91-7.19,149.87,14.16-50.79-8.61-92.23-8.61-92.23,2.51,25.84-3.59,45.22-3.59,45.22,1-25-7.13-49.06-12.38-61.83a156.33,156.33,0,0,1,27.63,1.9c-48.62-69.08-126.22-24.23-126.22-24.23,17.49-.35,28.17,4.13,28.17,4.13-49.15-2.95-78.41,16-96.53,33.91s-40.17,10.05-40.17,10.05c1.18.51,2.38,1.09,3.59,1.74,31.26,16.91,33.18,9.26,49.22-6.83,15.15-15.2,38.29-31.88,65.79-31.09,0,0-22.5,2.76-44.76,31.29,0,0,24.59-16.69,62.26-10.23C368.49,393.45,374.23,347.52,435.24,373.36Z"/><path class="cls-5" d="M349.46,419.11s2.88,13.1-2.15,30.86c0,0,60.38-58,53.56,3.77,0,0-2.51-14.17-8.79-17.23,0,0,12.2,35.53-27.27,73.21,0,0,10-20.46,8.25-35.53a51.12,51.12,0,0,0-13.84,5.86l-12.47-15,4,21.1A52.53,52.53,0,0,0,340,499.33l-11.83-7.42L336,508a67.58,67.58,0,0,0-3.82,22.13s-21.71-7.71-34.63,3.05c0,0-23-6.09-29.43-7.89l-3.32-8.25s24.77,20.09,84.69-98"/><path class="cls-1" d="M268.09,525.33l-3.32-8.25s24.77,20.09,84.69-98c0,0-22.28,46.28-41.84,76.24s-39.53,30-39.53,30"/><path class="cls-6" d="M391.59,425.55c7,1.39,11.4,9,9.28,28.19,0,0-2.51-14.17-8.79-17.23,0,0,12.2,35.53-27.27,73.21,0,0,10-20.46,8.25-35.53a51.12,51.12,0,0,0-13.84,5.86l-12.47-15,4,21.1A52.53,52.53,0,0,0,340,499.33l-11.83-7.42L336,508a67.58,67.58,0,0,0-3.82,22.13s-21.71-7.71-34.63,3.05l-2.69-.71s55.94-99.85,96.76-107"/><path class="cls-6" d="M495.87,611.1s11.94-29.07,12.92-47.73c0,0-5.93,21.18-21.71,37.9C508,564.69,484,523.54,484,523.54s9.87-19.38,14.36-32.3c0,0,16.5,24.58,17.4,49.34,0,0,5-31.58-13.82-56.16,0,0,3-6.64,2.69-11.66,30.83,36.26,23.15,103.42-8.79,138.34"/><path class="cls-5" d="M276.8,458.58s-45.94,25.12-61.73,47c0,0-26.55,44.86-15.07,102.28l71.41-9.33s9.33-39.48-12.2-54.91c0,0,34.81,4.67,31.58,35.88,0,0,16.72-44.18-33.73-49.52,0,0-10.05-26.55,12.92-45.93,0,0-15.79,2.87-23,17.76-.82-14.7,19.95-32.74,29.79-43.24"/><path class="cls-1" d="M276.8,458.58s-45.94,25.12-61.73,47c0,0-26.55,44.86-15.07,102.28,0,0-4.07-62.52,19.88-95.47,0,0,11.89-16,34.63-29.41,6.74-9.27,16.44-18.17,22.29-24.41"/><path class="cls-6" d="M290.79,579.51s16.72-44.18-33.73-49.52c0,0,39.58,13,33.73,49.52"/><path class="cls-6" d="M247.68,601.64l23.73-3.1s9.33-39.48-12.2-54.91c0,0,6.76,36-11.53,58"/><path class="cls-2" d="M352.9,399.48s6.18,20.47,3.41,36.6c0,0,5.92-12.2,5.2-21.53a27.13,27.13,0,0,1,1.08,12.29s6.91-7.63,2.78-26.65c-3.15-1.51-8.15-1.32-12.47-.71"/><path class="cls-2" d="M370.31,399s4.36,14.4,2.4,25.76c0,0,4.17-8.59,3.66-15.15a19,19,0,0,1,.76,8.64s4.86-5.36,2-18.74c-2.22-1.07-5.73-.94-8.78-.51"/><path class="cls-2" d="M384.23,399.29s1.65,9.35-.42,16.31c0,0,3.25-5.06,3.43-9.21a12.11,12.11,0,0,1-.17,5.47s3.44-3,2.62-11.59c-1.31-.84-3.52-1-5.46-1"/><path class="cls-7" d="M259.64,427.94a22.3,22.3,0,0,0,14.65,7.25c-.67-3.41-.33-6.21-.1-9.6-.83,0-9.2-2.61-14.55,2.35"/><path class="cls-7" d="M287.66,498.25a22.37,22.37,0,0,1,3.35-16c2.27,2.63,4.69,4.1,7.49,6-.48.67-3.62,8.85-10.84,10"/><path class="cls-7" d="M266.67,510.27a22.32,22.32,0,0,1,3.35-16c2.27,2.63,4.68,4.1,7.49,6-.49.66-3.63,8.84-10.84,10"/><path class="cls-7" d="M280.64,422.11a12.56,12.56,0,0,0,9.15.76,19,19,0,0,1-2-5c-.44.16-5.34.54-7.12,4.24"/><path class="cls-7" d="M294.24,414.64a13.29,13.29,0,0,0,9.71.81,20.17,20.17,0,0,1-2.16-5.3c-.46.17-5.67.57-7.55,4.49"/><path class="cls-7" d="M309.15,407.61a10.07,10.07,0,0,0,6.47,3.51,15.61,15.61,0,0,1,.12-4.32c-.37,0-4.09-1.33-6.59.81"/><path class="cls-7" d="M320.33,403.36a11.24,11.24,0,0,0,7.21,3.91,16.92,16.92,0,0,1,.14-4.82c-.42,0-4.57-1.48-7.35.91"/><path class="cls-7" d="M219.17,411.85a24.5,24.5,0,0,0,11.5,13.71c.83-3.71,2.4-6.38,4.13-9.67-.82-.39-8.08-6.66-15.63-4"/><path class="cls-7" d="M303.45,482.15a11.5,11.5,0,0,1,1.72-8.2A17.74,17.74,0,0,0,309,477c-.25.34-1.86,4.53-5.56,5.12"/><path class="cls-7" d="M312.07,469.86a11.44,11.44,0,0,1,1.71-8.2,17.74,17.74,0,0,0,3.84,3.08c-.25.34-1.86,4.53-5.55,5.12"/><path class="cls-7" d="M317.72,458.55a11.42,11.42,0,0,1,1.72-8.2,17.22,17.22,0,0,0,3.84,3.08c-.26.35-1.86,4.54-5.56,5.12"/><path class="cls-5" d="M642.09,373s.13,1.46.27,4.09c.3,12.5-2.63,51.53-46.21,87.1,0,0,20.1-9.69,29.79-23,0,0-11,42.79-89.45,68.7-4.47-19.71-11.79-40.11-23.59-48.11,0,0,23.69,9.86,31.58,36.78,0,0,1.74-35.56-27.15-48.3,4.57.06,9.29-.12,14.11-.52.11-.1,15.45-14.52,24.48-13.89a9.63,9.63,0,0,1,7.33,4.35c-4.49,3.31-12.63,6.68-12.63,6.68C562,444.86,565,443.43,565,443.43a155.09,155.09,0,0,0,18.14-6.65c.05-.09,10.13-20,21.22-18.48q1.26.18,2.55.33c-3.83,4.39-7.8,8.69-7.8,8.69a72.39,72.39,0,0,0,23.32-17.76c0-.06,1-17.56,9.88-18-1.61,6.08-3.5,11.43-3.5,11.43,4.26-5.43,7.57-12.92,9.83-19.07A80.14,80.14,0,0,0,642.09,373"/><path class="cls-1" d="M642.09,373h0c0,.07,0,.6.11,1.52.46,13.28-13.39,28.48-13.39,28.48,4.26-5.43,7.57-12.92,9.83-19.07A80.14,80.14,0,0,0,642.09,373"/><path class="cls-1" d="M622.43,409.56c0-.06,1-17.56,9.88-18-.42,1.62-.87,3.18-1.3,4.61-6.35,3.21-8.58,13.37-8.58,13.37"/><path class="cls-1" d="M583.14,436.78c.05-.09,10.13-20,21.22-18.48q1.26.18,2.55.33c-1.15,1.32-2.32,2.64-3.38,3.83-10.24.69-20.39,14.32-20.39,14.32"/><path class="cls-6" d="M642.3,376.07c0,.31,0,.66.06,1,.3,12.5-2.63,51.53-46.21,87.1,0,0,20.1-9.69,29.79-23,0,0-11,42.79-89.45,68.7-4.47-19.71-11.79-40.11-23.59-48.11,0,0,23.69,9.86,31.58,36.78,0,0,1.74-35.56-27.15-48.3,4.57.06,9.29-.12,14.11-.52.11-.1,15.45-14.52,24.48-13.89a9.63,9.63,0,0,1,7.33,4.35c-4.49,3.31-12.63,6.68-12.63,6.68s1-.14,2.48-.46l-2.48.46c87.4-9.68,92-58.14,91.68-70.85"/><path class="cls-8" d="M308.48,331s8.28-7.82,16.43-12.3c0,0,3.66,5,3.16,7.5-1.29,6.5-16.59,4.9-19.59,4.8"/><path class="cls-6" d="M420,330.36a4.3,4.3,0,1,1,5.78,1.93l-.51.21a8.23,8.23,0,1,1-11.32,5,6.39,6.39,0,0,1-2.27,1.86,6.63,6.63,0,0,1-5.93-11.85,6.08,6.08,0,0,1,1.15-.45,3.54,3.54,0,1,1,2.7-.2,6.63,6.63,0,0,1,5.51,8.34,8.31,8.31,0,0,1,6-3.41,4.18,4.18,0,0,1-1.12-1.4"/><path class="cls-6" d="M472.79,357a1.81,1.81,0,1,0,2.42-.81l-.21-.09a3.39,3.39,0,0,0,1.63-1.59,3.45,3.45,0,0,0-6.18-3.09,3.4,3.4,0,0,0-.2,2.59,2.84,2.84,0,0,0-1-.78,2.78,2.78,0,0,0-2.49,5,3.19,3.19,0,0,0,.48.19,1.48,1.48,0,1,0,1.14.08,2.77,2.77,0,0,0,2.31-3.5,3.49,3.49,0,0,0,1.26,1.08,3.45,3.45,0,0,0,1.26.35,1.78,1.78,0,0,0-.46.59"/><path class="cls-6" d="M465.34,397.22a1.81,1.81,0,1,0,2.43-.81l-.22-.09a3.41,3.41,0,0,0,1.64-1.59,3.46,3.46,0,1,0-6.39-.5,2.78,2.78,0,1,0-3.44,4.2,2.18,2.18,0,0,0,.48.19,1.48,1.48,0,1,0,1.8,2.07,1.5,1.5,0,0,0-.67-2,2.78,2.78,0,0,0,2.12-1.51,2.83,2.83,0,0,0,.2-2,3.42,3.42,0,0,0,2.52,1.43,2,2,0,0,0-.47.59"/><path class="cls-6" d="M472.59,432.68a1.82,1.82,0,1,1,2.44.81l-.22.1a3.42,3.42,0,0,1,1.64,1.59,3.47,3.47,0,1,1-6.42.51,2.7,2.7,0,0,1-.95.78,2.8,2.8,0,1,1-2.51-5,3.3,3.3,0,0,1,.49-.19,1.49,1.49,0,0,1-.2-2.74,1.49,1.49,0,0,1,1.34,2.66,2.8,2.8,0,0,1,2.13,1.52,2.77,2.77,0,0,1,.19,2,3.52,3.52,0,0,1,1.27-1.08,3.45,3.45,0,0,1,1.27-.35,1.87,1.87,0,0,1-.47-.6"/><path class="cls-6" d="M214.94,553.67a1.82,1.82,0,1,1,2.44.82l-.22.09a3.39,3.39,0,0,1,1.64,1.6,3.47,3.47,0,1,1-6.41.5,2.73,2.73,0,0,1-1,.78,2.8,2.8,0,0,1-2.5-5,3.19,3.19,0,0,1,.48-.19,1.5,1.5,0,0,1-.86-.75,1.49,1.49,0,1,1,2,.67,2.79,2.79,0,0,1,2.13,1.52,2.83,2.83,0,0,1,.2,2,3.46,3.46,0,0,1,2.53-1.43,1.87,1.87,0,0,1-.47-.6"/><path class="cls-1" d="M233.78,502.54a1.82,1.82,0,1,1,2.44.81,1,1,0,0,1-.22.09,3.48,3.48,0,0,1,.09,6.26,3.47,3.47,0,0,1-4.86-4.16,2.87,2.87,0,0,1-1,.79,2.8,2.8,0,0,1-2.5-5,3.19,3.19,0,0,1,.48-.19,1.49,1.49,0,0,1-.19-2.74,1.49,1.49,0,0,1,1.33,2.66,2.79,2.79,0,0,1,2.32,3.52,3.56,3.56,0,0,1,2.54-1.44,2,2,0,0,1-.47-.59"/><path class="cls-6" d="M252.63,574.42a1.82,1.82,0,1,1,2.43.81.78.78,0,0,1-.21.09,3.48,3.48,0,0,1,.09,6.26,3.48,3.48,0,0,1-4.87-4.16,2.79,2.79,0,0,1-4.71-.46,2.8,2.8,0,0,1,1.26-3.76,2.15,2.15,0,0,1,.48-.18,1.54,1.54,0,0,1-.86-.75,1.49,1.49,0,1,1,2,.66,2.8,2.8,0,0,1,2.32,3.52,3.43,3.43,0,0,1,1.27-1.08,3.47,3.47,0,0,1,1.27-.36,1.62,1.62,0,0,1-.47-.59"/><path class="cls-6" d="M247.54,533.19A1.82,1.82,0,1,1,250,534a.85.85,0,0,1-.22.09,3.48,3.48,0,1,1-4.77,2.1,2.87,2.87,0,0,1-1,.79,2.8,2.8,0,0,1-2.5-5,2.92,2.92,0,0,1,.49-.19,1.46,1.46,0,0,1-.86-.74,1.49,1.49,0,1,1,2,.66,2.81,2.81,0,0,1,2.33,3.52,3.35,3.35,0,0,1,1.27-1.08,3.42,3.42,0,0,1,1.26-.36,1.73,1.73,0,0,1-.47-.59"/><path class="cls-6" d="M273.75,542.23a1.76,1.76,0,1,0,2.35-.78,1.21,1.21,0,0,0-.2-.09,3.43,3.43,0,0,0,1.59-1.54,3.36,3.36,0,1,0-6.2-.49,2.78,2.78,0,0,0-.93-.76,2.71,2.71,0,1,0-2.42,4.84,2.07,2.07,0,0,0,.47.18,1.45,1.45,0,0,0-.83.73,1.44,1.44,0,1,0,1.93-.65,2.71,2.71,0,0,0,2.25-3.4,3.29,3.29,0,0,0,1.22,1.05,3.43,3.43,0,0,0,1.23.34,1.84,1.84,0,0,0-.46.57"/><path class="cls-3" d="M380.78,583.33a27.19,27.19,0,0,0,11-.7c4.75-1.39,8.76-4.13,13.73-5.07,4.34-.82,8.88-2.11,13.15-3.29,12.82-3.55,23.66-10.62,35.64-.81l3.79,3.1c19.95,7.14,18.7,23,17.5,40.72l-5.09-3.15c4.4,10.13,3.37,4.71,1.47,15.34l-40.41-.5a177.13,177.13,0,0,0-20.25-2.86c-4.9-.41-10.74-1.16-15.68-1.16-8.79,0-14.89-.33-23.68-.17-11.93.21-24.28.29-36.18,1L332,626c-13.27.75-36.89,9.85-45.49-2.65A19.5,19.5,0,0,1,283.34,610c1.25-11.68,10.29-28.77,16.42-38.69,6.64-10.74,17.39-25.57,29.2-30.8l6.11-2.71c2.82-6.11,6.84-12.06,12.1-18.62l.52-.65,5.17-6.39,7.48,3.41A91.36,91.36,0,0,1,383.58,531c5.92,5.62,10.93,12.57,12.4,20.76,2.42,13.46-5.24,23.88-15.2,31.53"/><path class="cls-5" d="M319.24,592.81s29.9-6.87,51.63-.75,29.71-2.78,36.58-4.08a292,292,0,0,0,29.35-8.17c4.27-1.68,6.68-1.49,10.77,1.85,0,0-11.89,1.12-.74,17.65,0,0-4.18,0-7-5,0,0-.74,1.21.65,3.81,0,0-25.16,1.39-40.2,4.27,0,0,23.95.37,33.89.1,0,0,5.85-2.42,8.91,1.66,0,0-14.58,3.07.1,19.23,0,0-10.68-.37-15.51-9.66,0,0-.19,6.32,6.41,10.87,0,0-12.73-2.6-21.64-3.35s-59.43,0-79.12,1.12-41,2.69-39.46-11.24,23-53.67,39.37-60.91c0,0,.37,13.74,7.8,21-2.33-22.42,4.2-32.78,14.88-46,0,0,61.57,28.1,7.74,56.45,0,0-21.06-5.64-44.44,11.18m36.7-67.63a5.89,5.89,0,0,0-.7.91C355.47,525.78,355.7,525.48,355.94,525.18Z"/><path class="cls-1" d="M341.06,571.17s2.14-30.44,17.07-41c1.11-.78,2.13-1.53,3.07-2.25-3.13-1.77-5.26-2.74-5.26-2.74-10.68,13.21-17.21,23.57-14.88,46m14.88-46a5.89,5.89,0,0,0-.7.91C355.47,525.78,355.7,525.48,355.94,525.18Z"/><path class="cls-1" d="M304.7,622.19s-28.5-5.69,29.35-65.7a41.35,41.35,0,0,1-.79-6.3c-16.34,7.24-37.89,47-39.37,60.91-.71,6.66,3.78,9.77,10.81,11.09"/><path class="cls-6" d="M304.7,622.19c.12-2,11.6-28.76,52.33-24.46s41.44-2.87,53.46-4.3c6.48-.78,17.77-5.67,31.61-6.42-.25,2.62.83,6.52,4.73,12.3,0,0-4.18,0-7-5,0,0-.74,1.21.65,3.81,0,0-25.16,1.39-40.2,4.27,0,0,23.95.37,33.89.1,0,0,5.85-2.42,8.91,1.66,0,0-14.58,3.07.1,19.23,0,0-10.68-.37-15.51-9.66,0,0-.19,6.32,6.41,10.87,0,0-12.73-2.6-21.64-3.35s-59.43,0-79.12,1.12c-10.27.58-21,1.29-28.65-.15"/><path class="cls-6" d="M355.94,525.18s18.77,33.76-13.4,56.92h0c12.43-2.8,21.13-.47,21.13-.47,53.83-28.35-7.74-56.45-7.74-56.45"/><path class="cls-9" d="M467.54,601.63s-9-5.57-16.9-2.6c-15.45-24.86,18-14.22,16.9,2.6"/><path class="cls-9" d="M461.06,626.49s-8.36-6.52-16.52-4.42c-12.67-26.38,19.48-12.19,16.52,4.42"/><path class="cls-6" d="M317.45,603.77a1.76,1.76,0,0,0,3.14,1.57,1.76,1.76,0,0,0-.79-2.36l-.2-.08a3.36,3.36,0,1,0-4.62-2,2.74,2.74,0,0,0-.92-.76,2.71,2.71,0,1,0-2.42,4.84,3.8,3.8,0,0,0,.47.18,1.37,1.37,0,0,0-.83.72,1.44,1.44,0,1,0,1.93-.64,2.7,2.7,0,0,0,2.05-1.47,2.66,2.66,0,0,0,.19-1.93,3.29,3.29,0,0,0,1.23,1,3.4,3.4,0,0,0,1.22.35,1.7,1.7,0,0,0-.45.57"/><path class="cls-6" d="M353.94,572.89a1.76,1.76,0,1,0,2.35-.78l-.2-.09a3.35,3.35,0,1,0-4.62-2,2.69,2.69,0,1,0-2.87,4.27,1.37,1.37,0,0,0-.83.72,1.44,1.44,0,1,0,1.93-.65,2.7,2.7,0,0,0,2.24-3.39,3.29,3.29,0,0,0,1.23,1,3.19,3.19,0,0,0,1.22.34,1.81,1.81,0,0,0-.45.57"/><path class="cls-1" d="M350.16,549.78a1.75,1.75,0,1,0,2.35-.79l-.21-.08a3.32,3.32,0,0,0,1.59-1.55,3.35,3.35,0,1,0-6-3,3.32,3.32,0,0,0-.2,2.52,2.78,2.78,0,0,0-.93-.76,2.71,2.71,0,0,0-2.42,4.84,3.94,3.94,0,0,0,.48.18,1.41,1.41,0,0,0-.84.72,1.45,1.45,0,0,0,.64,1.93,1.44,1.44,0,1,0,1.29-2.57,2.71,2.71,0,0,0,2.25-3.4,3.29,3.29,0,0,0,1.23,1,3.16,3.16,0,0,0,1.22.35,1.7,1.7,0,0,0-.45.57"/><path class="cls-10" d="M192.45,511.61c7.66-17,19.43-32.66,37.55-46.43v0c-9-28.49-37.3-28.27-37.3-28.27-11-1.8-21-6.73-26.8-16.72-11.35-19.44.76-46.55,5.85-66.48l.75-2.95,1.78-2.47c4.37-6.07,12.35-12.2,18.46-16.28,3.38-2.26,6.9-4.39,10.53-6.39q-19,3.22-38,6.83l-37,146.23c18.92-2.86,37.74.52,52.07,14.74a52.9,52.9,0,0,1,12.08,18.21"/><path class="cls-11" d="M547.48,184.71l.2,61.06-13.5,5.4C415.55,222.34,336,222,216.06,251.08L206,247l.2-62.32c58.16-29.18,283.17-29.18,341.33,0M533.57,169.6c4.94,1.32,9.58,2.72,13.86,4.21L574.62,42.45,557.7,58.6ZM376.82,0,303.37,71.72l0,.12c15.27,6.79,25.83,21.28,25.83,38.06,0,23.3-20.32,42.18-45.4,42.18s-45.4-18.88-45.4-42.18a40.11,40.11,0,0,1,9.28-25.55L175.84,27.13l30.37,146.68c69.64-24.17,230.15-26.44,316.84-6.81l22.21-98.2L512.67,95.85a39.2,39.2,0,0,1,2.59,14.05c0,23.3-20.33,42.18-45.41,42.18s-45.4-18.88-45.4-42.18c0-16.78,10.56-31.27,25.84-38.06C408,69,399.52,35.22,399.52,35.22l-24.87,95.64Z"/><path class="cls-10" d="M438.77,233.29l9.1-67.9c25.57,1.94,49,5,67.81,9.12l-6,71c-25-5.46-48.3-9.52-70.87-12.21m10.28-76.72c24.65,2,47.68,5,67.39,9h0L544.1,69.77,512.67,95.85a39.2,39.2,0,0,1,2.59,14.05c0,23.3-20.33,42.18-45.41,42.18s-45.4-18.88-45.4-42.18c0-16.78,10.56-31.27,25.84-38.06a68.11,68.11,0,0,1-19-3.92c-45.94,57.37,17.79,88.64,17.79,88.64Z"/><path class="cls-2" d="M533.57,169.6c4.94,1.32,9.58,2.72,13.86,4.2L574.62,42.45,557.7,58.6ZM508.49,173,498,243c11.7,2.4,23.74,5.11,36.22,8.15l13.5-5.4-.2-61.06C538.25,180.08,524.8,176.19,508.49,173Zm1.31-8.74c4.58.85,9,1.76,13.25,2.72l22.21-98.2L512.67,95.85l18.64-6.55-21.5,75Z"/><path class="cls-4" d="M264.74,169.76l-4.36,71.6q-15.4,3-31.66,6.73l5.08-72.63c9.19-2.18,19.6-4.09,30.94-5.7m1.27-21c-16.24-6.43-27.63-21.39-27.63-38.83l-3.93,56.26c9.52-2,19.87-3.82,30.83-5.36Z"/><path class="cls-4" d="M290.65,166.7l-3.22,69.9q-6.4,1-12.92,2.14l4.93-70.86q5.51-.63,11.21-1.18m.71-15.21a48.56,48.56,0,0,1-7.58.59c-1.09,0-2.16,0-3.23-.11l-.49,7q5.43-.62,11-1.16Z"/><path class="cls-4" d="M350,163.18l-1.4,66.92q-11.06.57-22.29,1.61L328.14,164c7.2-.35,14.51-.63,21.88-.82m2.91-139.85-21.61,21.1L328.37,155q10.81-.56,21.84-.86Z"/><path class="cls-4" d="M374.82,162.83l.34,66.59c-3.11,0-6.23,0-9.35.09l.33-66.63c2.89,0,5.78,0,8.68,0M376.82,0,366.9,9.68l-.71,144.18q4.29,0,8.58-.05l-.12-22.95Z"/><path class="cls-10" d="M501.25,858.53c-41.86-2.64-84.67-4.1-127.5-4.26-42.84.16-85.65,1.62-127.5,4.26,57.26,49.31,127.5,69.74,127.5,69.74s70.23-20.43,127.5-69.74"/><path class="cls-12" d="M137.81,698.31l-10.12,7.06c2.59,2.18,3.9,3.27,6.54,5.43l-.29,1-.62,2.18c-2.35,8.17-3.51,12.25-5.89,20.42-.24.79-.35,1.19-.58,2-5.14,17.4-10.47,34.71-16.18,51.93l-19.11,2.78c7.13-20.37,13.71-40.87,20.07-61.47l5.47-.67-.25-.16c-1.61-1.27-2.41-1.9-4-3.18-4.57-3.69-6.82-5.54-11.27-9.27-8.24,25.83-16.66,51.56-25.95,77.07l-19.11,2.78C68,766.09,78.24,735.61,88.47,705.1l.75-2.24c2.82-8.37,4.23-12.56,7.13-20.94l.7-2q7.4-21,15.32-41.88c6.45-.68,9.66-1,16-1.57-6.6,18.12-12.8,36.35-18.77,54.67,4.26,3.8,6.43,5.69,10.83,9.46,6.72-21.88,13.67-43.65,21.23-65.28,6.36-.51,9.53-.75,15.85-1.2C150.51,655.38,144.05,676.8,137.81,698.31Z"/><path class="cls-12" d="M171,699.22,167.16,697q-5.31,20.79-10.68,41.56c-2,7.49-3,11.24-5,18.73l-18.5,2.46c2.3-7.59,3.42-11.39,5.62-19,2.85-10.13,4.24-15.2,7-25.33,2.59-9.5,3.88-14.24,6.5-23.74l5.08-.5c-1.75-1.06-2.62-1.6-4.35-2.67l0-.16-3.55-2.3.5-1.75c1.87-6.59,2.81-9.88,4.75-16.46.18-.64.28-1,.47-1.6,1.37.88,2.06,1.32,3.45,2.19q4.8-16.38,9.91-32.66c6.32-.41,9.47-.6,15.76-1q-6.27,21.27-11.93,42.66l3.71,2.29C173.92,687.54,173,691.43,171,699.22Z"/><path class="cls-12" d="M242.76,631.92q-3.1,13.94-5.78,28c-.12.6-.18.9-.29,1.5-1.19,6.16-1.77,9.23-2.9,15.39-.12.66-.18,1-.31,1.65-2.38,13.05-4.69,26.11-7,39.16q-2.76,15.34-5.78,30.65l-18.47,2.4q3.42-15.51,6.52-31.09c3.14-15.57,6.2-31.16,9.44-46.71l5.1-.4c-6.66-3.94-9.93-5.95-16.31-10-6.87,30.05-13.16,60.21-20.15,90.24l-18.48,2.42c8.55-33.81,16.21-67.81,24.86-101.59l.45-1.71.5-1.87c1.5-5.66,2.27-8.49,3.86-14.15.19-.69.29-1,.48-1.71,7.92,5.89,16.09,11.57,24.4,17,1.64-7.34,2.49-11,4.29-18.35Z"/><path class="cls-12" d="M295.32,687.33c-.05.57-.08.85-.13,1.42-.55,5.83-.82,8.74-1.37,14.57-.06.62-.08.94-.14,1.56l-4.83-2.14c-.85,8.36-1.27,12.53-2.17,20.89l.16,0c-.7,6.47-1,9.71-1.82,16.19l-33.73,4.42-18.47,2.41c1.24-6.75,1.83-10.12,3-16.87,4.6-27.15,8.9-54.34,13.88-81.43,1.27-6.75,1.93-10.12,3.33-16.87,6.23-.28,9.34-.42,15.57-.72,5.2-.24,7.8-.37,13-.63,6.24-.31,9.37-.47,15.63-.81-.91,6.47-1.32,9.71-2.12,16.19-.89,7.21-1.3,10.82-2.08,18-6.58.54-9.86.8-16.43,1.31,1-7.32,1.48-11,2.55-18.3l-13.4.84c-4.28,26.7-7.95,53.48-11.88,80.22l14.9-1.79q1.83-14,3.53-28.1l4.58-.47c-3.37-1.58-5-2.38-8.36-4,.93-7.17,1.39-10.76,2.35-17.94C280.4,680.26,285.3,682.67,295.32,687.33Z"/><path class="cls-12" d="M356.9,623.85c0,6,.09,8.95.22,14.93.14,6.75.24,10.13.46,16.89-6.5-.73-9.71-.26-16.47.52,0-6.92,0-10.38,0-17.3-5.5.59-8.24.87-13.72,1.41-.23,8.49-.3,12.74-.42,21.23,10.68,4.39,21,8.5,31.3,13.65l0,.52c0,.37,0,.55,0,.92.21,5.39.32,8.09.54,13.48l.05,1.31c.31,7.76.46,11.63.72,19.38.21,6,.3,9,.45,14.93-7.36-1-11,1.19-18.46,2.22l-15.47,2.14-18.54,2.52c.3-6.23.43-9.35.66-15.58.4-10.44.56-15.66.88-26.11,7-.81,10.52-1.22,17.55-2.07-.08,10.33-.11,15.49-.26,25.82,6.06-.79,9.09-1.19,15.16-2-.05-10.35-.12-15.53-.24-25.88l5.41-.69-.31-.09c-2.06-.76-3.09-1.14-5.13-1.91-10.61-4.09-21.08-8.31-31.55-12.72,0-.44,0-.65,0-1.09v-.41c.2-5.63.3-8.45.54-14.08,0-.55,0-.82.06-1.37.21-5,.33-7.54.59-12.58.32-6.23.5-9.34.92-15.58,6.37-.5,9.57-.77,16-1.36,5.34-.48,8-.74,13.4-1.29C347.8,623,350.8,623.25,356.9,623.85Z"/><path class="cls-12" d="M396.73,627.1c6.29.42,9.44.62,15.78,1,.68,6.24,1,9.36,1.79,15.61,1.52,12.75,3.17,25.48,4.87,38.21.12.87.17,1.31.29,2.19.8,6,1.2,8.95,2,14.92q-16.87-9.82-33.65-19.83c1.51,17,3,33.93,4.33,50.9-7.38-1-11.07-1.5-18.45-2.51-1-18.93-2.14-37.84-3.28-56.76l4.41.49-4.55-2.73-4.36-2.72c0-.58,0-.87-.07-1.44-.27-5.43-.41-8.14-.64-13.56,0-.53,0-.79-.06-1.32,1.67,1,2.52,1.52,4.21,2.54-.25-4.86-.37-7.29-.58-12.15-.27-6-.38-9-.57-15,6.16.54,9.26.79,15.5,1.26C388.88,626.56,391.49,626.74,396.73,627.1Zm4.3,44.16q-1.56-14.37-2.93-28.77c-5.38-.42-8.06-.64-13.4-1.1.61,8.45.95,12.67,1.66,21.11C392.14,666,395.08,667.74,401,671.26Z"/><path class="cls-12" d="M471.55,647.29c5.19,26.48,10.64,52.91,16,79.36,1.32,6.58,2,9.87,3.27,16.45l-18.57-2.41-15.46-2-18.54-2.43c-.87-6.31-1.31-9.46-2.22-15.76-3.68-25.35-7.5-50.67-11-76-.85-6.3-1.26-9.45-2-15.76,6.37.35,9.56.51,16,.83,5.34.26,8,.38,13.37.62l16.11.71C469.64,637.43,470.27,640.71,471.55,647.29Zm-2.22,77.2c-4.77-26-9.65-52.07-14.26-78.15-5.49-.32-8.23-.49-13.69-.83,4.1,25.75,8.51,51.45,12.79,77.17Z"/><path class="cls-12" d="M508.64,632.5l16.12.69c1.75,6.93,2.64,10.4,4.42,17.33q4.14,16,8.33,31.93c-2.82,1.61-4.23,2.42-7.08,4L540,692l.2.76c.17.67.26,1,.44,1.67l4.13,15.67.4,1.52q5.26,19.9,10.44,39.83l-18.57-2.4q-5.57-23-11.28-46l5.41.53-.35-.18-5.8-3.35-16.54-9.53q6.59,28.26,13.08,56.53L503,744.68c-4.58-21.78-9.29-43.54-14-65.3-.14-.64-.21-1-.34-1.6-1.29-6-1.93-9-3.2-15l-.3-1.46c-1.13-5.36-1.7-8-2.8-13.41-1.37-6.64-2.05-10-3.38-16.61l16.15.66Zm11.78,48.85q-3.88-15.89-7.73-31.77l-13.76-.76c2.09,9.29,3.15,13.94,5.29,23.23C510.65,675.73,513.89,677.59,520.42,681.35Z"/><path class="cls-12" d="M586.27,654.26c-6-.45-8.95-.67-14.95-1.09,10.6,34.87,21.36,69.69,32,104.55l-18.54-2.44c-9.88-34.41-19.93-68.77-29.79-103.19-6-.38-9-.57-15-.93-1.88-7-2.82-10.5-4.67-17.49,5.86.27,8.79.41,14.62.7,6.4.33,9.59.5,15.94.86,5.85.33,8.77.51,14.58.88C582.79,643.37,584,647,586.27,654.26Z"/><path class="cls-12" d="M633.52,638l9.08,23.17c4.12,10.49,6.17,15.74,10.28,26.23-6.53-.78-9.82-1.16-16.41-1.88-3.86-10.41-5.79-15.61-9.64-26-5.28-.53-7.94-.78-13.27-1.27q5.55,15.71,11.1,31.41,20,14,40.1,28c.12.33.19.49.32.81l.55,1.43c3.29,8.37,4.93,12.56,8.21,20.94l.8,2L686.43,773c3.64,9.27,5.45,13.9,9.08,23.17l-19.1-2.78-15.91-2.32-19.11-2.77c-3-9-4.48-13.54-7.49-22.57q-6.28-18.9-12.63-37.8c7.09.84,10.63,1.27,17.7,2.13q6.76,19.11,13.5,38.21l15.45,2.14q-7.2-19.45-14.41-38.91l5.39.68-.38-.24L652,727.47l-40.23-27.84-.53-1.59-.2-.59c-2.73-8.15-4.1-12.23-6.82-20.39l-.67-2c-2.43-7.28-3.65-10.92-6.07-18.21-3-9-4.5-13.53-7.49-22.56,6.25.43,9.36.66,15.54,1.15,5.14.41,7.71.63,12.8,1.08C624.46,637.1,627.49,637.39,633.52,638Z"/><path class="cls-13" d="M127.68,705.37c2.59,2.18,3.9,3.26,6.54,5.43-7.45,26-15.07,51.84-23.56,77.51l-19.11,2.77c7.13-20.36,13.71-40.87,20.07-61.47l5.47-.67-.25-.15c-1.61-1.27-2.41-1.91-4-3.19-4.57-3.69-6.82-5.54-11.27-9.27-8.24,25.83-16.65,51.56-25.94,77.07l-19.11,2.78C68,766.24,78.13,735.92,88.31,705.56q23.39-2.84,46.8-5.37Z"/><path class="cls-13" d="M138.55,740.76c-2.2,7.59-3.31,11.38-5.62,19l18.51-2.45c5.44-20,10.58-40.17,15.71-60.29l3.84,2.22c.28-1.1.42-1.65.69-2.74-8.6.84-12.9,1.26-21.52,2.15C146.31,712.67,142.47,726.72,138.55,740.76Z"/><path class="cls-13" d="M168.3,755.05l18.49-2.42c4.66-19.56,8.84-39.22,13.11-58.85-6.84.63-10.26,1-17.1,1.61C178.07,715.3,173.34,735.21,168.3,755.05Z"/><path class="cls-13" d="M202.18,750.62l18.48-2.41c3.7-19.08,7.13-38.2,10.56-57.32l-17.08,1.56C210.25,711.86,206.45,731.29,202.18,750.62Z"/><path class="cls-13" d="M293.67,704.87c.67-7,1-10.52,1.65-17.54-1.74-.81-2.6-1.21-4.32-2-8.7.84-13,1.25-21.72,2.07-.31,2.34-.46,3.51-.76,5.86,3.31,1.61,5,2.42,8.35,4l-4.57.47c-1.15,9.37-2.31,18.74-3.54,28.1l-14.89,1.79c1.95-13.09,3.8-26.2,5.66-39.31l-17.08,1.57c-3.12,18.95-6.25,37.88-9.64,56.78q26.12-3.4,52.2-6.83c.77-6.48,1.13-9.72,1.83-16.2l-.16,0c.9-8.35,1.32-12.53,2.16-20.88C290.77,703.6,291.73,704,293.67,704.87Z"/><path class="cls-13" d="M341.36,684.08c2,.77,3.07,1.15,5.13,1.9l.31.1-5.41.68c.12,10.36.19,15.53.24,25.89l-15.16,2c.14-10.33.18-15.49.26-25.82-7,.84-10.54,1.26-17.55,2.07q-.66,20.85-1.54,41.69c17.44-2.37,34.92-5.35,52.47-6.88-.44-16.75-1.13-33.48-1.8-50.22-10.59-.48-21.43,1.56-31.89,2.77C332.32,680.64,335.31,681.8,341.36,684.08Z"/><path class="cls-13" d="M373.68,727.59l18.45,2.51c-1.3-17-2.82-33.94-4.33-50.9q16.76,10,33.65,19.83l-2.25-16.91Q395,679.72,370.77,677C371.8,693.84,372.86,710.71,373.68,727.59Z"/><path class="cls-13" d="M462.27,686.19c2.36,12.77,4.74,25.53,7.06,38.3l-15.16-1.81q-3.12-18.91-6.35-37.82c-6.92-.64-10.38-1-17.28-1.64,2.61,17.67,5.21,35.34,7.69,53q26.28,3.46,52.57,6.86-5.49-27.69-11.17-55.34C472.68,687.14,469.21,686.83,462.27,686.19Z"/><path class="cls-13" d="M503,744.68l18.57,2.4q-6.45-28.29-13.08-56.54c6.56,3.78,9.87,5.68,16.54,9.54l5.8,3.34.35.18-5.41-.53q5.69,23,11.28,46l18.57,2.4q-7.56-29.18-15.31-58.31-24.63-2.24-49.26-4.39Q497.1,716.72,503,744.68Z"/><path class="cls-13" d="M584.77,755.28l18.54,2.43q-9.21-30.19-18.5-60.38l-17.27-1.66Q576.19,725.47,584.77,755.28Z"/><path class="cls-13" d="M644.74,703.72q-16.1-1.89-32.22-3.58,19.76,13.67,39.5,27.33l6.51,4.49.38.24-5.4-.69q7.22,19.46,14.41,38.9l-15.45-2.13q-6.74-19.11-13.5-38.21c-7.07-.87-10.61-1.3-17.7-2.14q10.11,30.18,20.12,60.38l54.13,7.87q-15.37-39.24-30.76-78.47C656.66,712.06,652.66,709.26,644.74,703.72Z"/><path class="cls-14" d="M212.71,813.59v-2.31l2-.4V797.11l-2-.4v-2.32h7.95v2.32l-2.06.4v13.52H224l.19-2.41h2.94v5.37Z"/><path class="cls-14" d="M228.52,796.71v-2.32h7.95v2.32l-2.06.4v13.77l2.06.4v2.31h-7.95v-2.31l2-.4V797.11Z"/><path class="cls-14" d="M237.93,811.28l2-.4V797.11l-2-.4v-2.32h15.28v5.26h-3l-.17-2.29h-6.27v5.29h6.73v3h-6.73v5.27l2.06.4v2.31h-7.95Z"/><path class="cls-14" d="M267,805.15h-6.5v5.48h6.2l.17-2.29h2.93v5.25H254.61v-2.31l2-.4V797.11l-2-.4v-2.32h15.16v5.26h-2.95l-.17-2.29H260.5v4.82H267Z"/><path class="cls-14" d="M286.89,806.86h-7.43v-3h7.43Z"/><path class="cls-14" d="M304.47,794.39a7.91,7.91,0,0,1,5.8,2.25,7.75,7.75,0,0,1,2.28,5.77v3.17a7.72,7.72,0,0,1-2.28,5.77,7.94,7.94,0,0,1-5.8,2.24h-8.64v-2.31l2.05-.4V797.11l-2.05-.4v-2.32h8.64Zm-2.74,3v13.27h2.54a4,4,0,0,0,3.24-1.39,5.46,5.46,0,0,0,1.18-3.66v-3.2a5.4,5.4,0,0,0-1.18-3.62,4,4,0,0,0-3.24-1.4Z"/><path class="cls-14" d="M323.06,794.39a8,8,0,0,1,5.13,1.5,5,5,0,0,1,1.86,4.13,4.15,4.15,0,0,1-.78,2.52,5.48,5.48,0,0,1-2.28,1.73,4.13,4.13,0,0,1,2.44,1.66,5.28,5.28,0,0,1,.75,2.9v1a1.67,1.67,0,0,0,.25,1,1.11,1.11,0,0,0,.83.41l.47.07v2.32h-2a3.12,3.12,0,0,1-2.65-1,4.22,4.22,0,0,1-.76-2.62v-1.1a3.06,3.06,0,0,0-.75-2.19,2.85,2.85,0,0,0-2.1-.84h-3.15v5.06l2.06.4v2.31h-7.95v-2.31l2-.4V797.11l-2-.4v-2.32h8.62Zm-2.73,8.47H323a3.66,3.66,0,0,0,2.42-.69,2.48,2.48,0,0,0,.8-2,2.73,2.73,0,0,0-.8-2.06,3.26,3.26,0,0,0-2.35-.77h-2.73Z"/><path class="cls-14" d="M345.39,805.15h-6.5v5.48h6.2l.17-2.29h2.93v5.25H333v-2.31l2-.4V797.11l-2-.4v-2.32h15.16v5.26h-3l-.17-2.29h-6.15v4.82h6.5Z"/><path class="cls-14" d="M350.05,811.28l1.37-.2,5.84-16.69h3.94l5.8,16.69,1.37.2v2.31h-6.54v-2.31l1.33-.24-.84-2.63H356.1l-.85,2.63,1.34.24v2.31h-6.54Zm7-5.71h4.4l-2.16-6.76h-.08Z"/><path class="cls-14" d="M388.16,799.39h-.08l-5.14,14.21h-2.59l-5.11-14.16h-.08l.37,8.43v3l2.05.4v2.31h-7.94v-2.31l2-.4V797.11l-2-.4v-2.32h7.06l4.89,14.15h.08l4.93-14.15h7.1v2.32l-2.06.4v13.77l2.06.4v2.31h-7.95v-2.31l2-.4v-3Z"/><path class="cls-14" d="M410.11,806.86h-7.44v-3h7.44Z"/><path class="cls-14" d="M427.67,794.39a8,8,0,0,1,5.13,1.5,5,5,0,0,1,1.86,4.13,4.15,4.15,0,0,1-.78,2.52,5.48,5.48,0,0,1-2.28,1.73,4.13,4.13,0,0,1,2.44,1.66,5.28,5.28,0,0,1,.75,2.9v1a1.67,1.67,0,0,0,.25,1,1.11,1.11,0,0,0,.83.41l.48.07v2.32h-2a3.13,3.13,0,0,1-2.66-1,4.29,4.29,0,0,1-.76-2.62v-1.1a3.1,3.1,0,0,0-.74-2.19,2.89,2.89,0,0,0-2.11-.84h-3.15v5.06l2.06.4v2.31h-7.95v-2.31l2-.4V797.11l-2-.4v-2.32h8.62Zm-2.73,8.47h2.67a3.63,3.63,0,0,0,2.41-.69,2.48,2.48,0,0,0,.8-2,2.7,2.7,0,0,0-.8-2.06,3.26,3.26,0,0,0-2.35-.77h-2.73Z"/><path class="cls-14" d="M450,805.15h-6.5v5.48h6.2l.17-2.29h2.93v5.25H437.61v-2.31l2-.4V797.11l-2-.4v-2.32h15.16v5.26h-2.95l-.17-2.29H443.5v4.82H450Z"/><path class="cls-14" d="M454.66,811.28l1.37-.2,5.84-16.69h3.94l5.8,16.69,1.37.2v2.31h-6.54v-2.31l1.34-.24-.85-2.63h-6.22l-.84,2.63,1.33.24v2.31h-6.54Zm7-5.71H466l-2.16-6.76h-.08Z"/><path class="cls-14" d="M474.25,813.59v-2.31l2-.4V797.11l-2-.4v-2.32h7.95v2.32l-2.06.4v13.52h5.42l.18-2.41h2.94v5.37Z"/><path class="cls-14" d="M490.06,796.71v-2.32H498v2.32l-2.06.4v13.77l2.06.4v2.31h-7.95v-2.31l2.05-.4V797.11Z"/><path class="cls-14" d="M516.37,794.39v5.12h-3l-.16-2.15h-3.53v13.52l2,.4v2.31h-8v-2.31l2.06-.4V797.36h-3.52l-.16,2.15h-2.94v-5.12Z"/><path class="cls-14" d="M524.83,796.71l-1.56.23,3,6.3h.08l3-6.3-1.55-.23v-2.32H535v2.32l-1.63.27-5.22,9.86v4l2.05.4v2.31h-8v-2.31l2.06-.4v-4.24L519.19,797l-1.62-.27v-2.32h7.26Z"/></g></g></svg>