<svg xmlns="http://www.w3.org/2000/svg" viewBox="0 0 79.02 20.5"><defs><style>.cls-1{fill:#fff;stroke:#fff;stroke-miterlimit:10;stroke-width:0.5px;}.cls-2{fill:#b3b3b3;}</style></defs><title>logo small white text@20px</title><g id="Layer_2" data-name="Layer 2"><g id="Layer_1-2" data-name="Layer 1"><path class="cls-1" d="M7,8.58l-1.15.8L7,10.2V20.25H4.6V12.36h.73l0,0-.69-.49-2-1.41v9.82H.25V.25H2.62v7l2,1.41V.25H7Z"/><path class="cls-1" d="M11.73,9.16,11.1,8.8v8H8.73l0-2.48V7.89h.71l-.73-.42v0l-.61-.36V4.51l.61.33V.57H11.1V6.22l.63.35Z"/><path class="cls-1" d="M20,.57V16.78H17.62V6.09h.73l-2.7-1.56V16.78H13.27V.57l4.35,2.52V.57Z"/><path class="cls-1" d="M28.94,9.16v2.58l-.69-.4v3.07h0v2.37H21.56V.57h6.71v5H25.92V3h-2V14.41h2V10.34h.62l-1.23-.7V7.05Z"/><path class="cls-1" d="M37.12.57V5.64H34.75V3h-2V6.22l4.35,2.52v8H30.39V10.43h2.38v4h2v-4h.73l0,0-.69-.4L30.39,7.45V.57h6.73Z"/><path class="cls-1" d="M43.23.57H45.6v10.8L41.25,8.84v7.94H38.87v-9h.63l-.63-.35-.6-.35V4.53l.6.34V.57h4.36Zm0,6.82V3h-2V6.24Z"/><path class="cls-1" d="M53.89,3V16.78H47.17V.57h6.72ZM51.52,14.41V3h-2V14.41Z"/><path class="cls-1" d="M59.81.57h2.38V7.32L61,8l1.15.67v8.14H59.81V10.39h.73l0,0-.69-.4-2-1.15v8H55.46V.57h4.35Zm0,6.8V3h-2V6.22Z"/><path class="cls-1" d="M70.48,3H68.29V16.78H65.92V3H63.75V.57h6.73Z"/><path class="cls-1" d="M78.77.25V6.5H76.39V3.18h-2v4l4.35,3.11v9.92H72V12.41h2.38v4.91h2v-5h.73l0,0-.69-.49L72,8.73V.25h6.73Z"/><polygon class="cls-2" points="5.83 9.38 6.98 10.2 6.98 20.25 4.6 20.25 4.6 12.36 5.33 12.36 5.29 12.33 4.6 11.84 2.62 10.43 2.62 20.25 0.25 20.25 0.25 8.79 6.67 8.79 5.83 9.38"/><polygon class="cls-2" points="8.75 14.3 8.73 16.78 11.1 16.78 11.1 8.8 11.73 9.16 11.73 8.79 8.75 8.79 8.75 14.3"/><rect class="cls-2" x="13.27" y="8.79" width="2.37" height="7.99"/><rect class="cls-2" x="17.62" y="8.79" width="2.38" height="7.99"/><polygon class="cls-2" points="28.94 11.74 28.94 9.16 28.3 8.79 25.29 8.79 25.29 9.63 26.52 10.34 25.89 10.34 25.89 14.41 23.94 14.41 23.94 8.79 21.56 8.79 21.56 16.78 28.27 16.78 28.27 14.41 28.25 14.41 28.25 11.34 28.94 11.74"/><polygon class="cls-2" points="34.75 9.97 35.44 10.37 35.48 10.38 34.75 10.38 34.75 14.41 32.77 14.41 32.77 10.43 30.39 10.43 30.39 16.78 37.12 16.78 37.12 8.79 32.72 8.79 34.75 9.97"/><polygon class="cls-2" points="38.87 16.78 41.25 16.78 41.25 8.84 45.6 11.37 45.6 8.79 38.87 8.79 38.87 16.78"/><polygon class="cls-2" points="51.52 8.79 51.52 14.41 49.54 14.41 49.54 8.79 47.17 8.79 47.17 16.78 53.9 16.78 53.9 8.79 51.52 8.79"/><polygon class="cls-2" points="55.46 16.78 57.83 16.78 57.83 8.82 59.81 9.97 60.5 10.37 60.54 10.38 59.81 10.38 59.81 16.78 62.19 16.78 62.19 8.79 55.46 8.79 55.46 16.78"/><rect class="cls-2" x="65.92" y="8.79" width="2.38" height="7.99"/><polygon class="cls-2" points="76.62 8.79 72.12 8.79 76.39 11.84 77.08 12.33 77.12 12.36 76.39 12.36 76.39 17.32 74.42 17.32 74.42 12.41 72.04 12.41 72.04 20.25 78.77 20.25 78.77 10.33 76.62 8.79"/></g></g></svg>